<svg width="102" height="23" viewBox="0 0 102 23" fill="none" xmlns="http://www.w3.org/2000/svg">
<mask id="path-1-outside-1_560_78" maskUnits="userSpaceOnUse" x="-2" y="-2" width="106" height="27" fill="black">
<rect fill="white" x="-2" y="-2" width="106" height="27"/>
<path d="M0.51543 20.23V1.57C0.51543 1.15 1.52543 0.939999 3.54543 0.939999C5.58543 0.939999 6.60543 1.15 6.60543 1.57V16.27H11.2254C11.5854 16.27 11.8354 16.74 11.9754 17.68C12.0354 18.14 12.0654 18.61 12.0654 19.09C12.0654 19.57 12.0354 20.06 11.9754 20.56C11.8154 21.52 11.5554 22 11.1954 22H1.95543C1.51543 22 1.16543 21.82 0.90543 21.46C0.64543 21.1 0.51543 20.69 0.51543 20.23ZM27.5625 22.3C24.7625 22.3 22.4725 21.38 20.6925 19.54C18.9325 17.7 18.0525 15.02 18.0525 11.5C18.0525 7.96 18.9425 5.28 20.7225 3.46C22.5225 1.64 24.8325 0.729998 27.6525 0.729998C30.4925 0.729998 32.7825 1.63 34.5225 3.43C36.2625 5.21 37.1325 7.92 37.1325 11.56C37.1325 15.18 36.2425 17.88 34.4625 19.66C32.6825 21.42 30.3825 22.3 27.5625 22.3ZM27.5925 6.49C26.6325 6.49 25.8225 6.93 25.1625 7.81C24.5225 8.69 24.2025 9.93 24.2025 11.53C24.2025 13.11 24.5125 14.33 25.1325 15.19C25.7525 16.03 26.5625 16.45 27.5625 16.45C28.5825 16.45 29.4025 16.02 30.0225 15.16C30.6625 14.3 30.9825 13.07 30.9825 11.47C30.9825 9.87 30.6525 8.64 29.9925 7.78C29.3525 6.92 28.5525 6.49 27.5925 6.49ZM45.1212 14.68C45.5012 14.98 46.1512 15.39 47.0712 15.91C48.0112 16.43 48.9012 16.69 49.7412 16.69C50.6012 16.69 51.0312 16.36 51.0312 15.7C51.0312 15.4 50.9112 15.14 50.6712 14.92C50.4312 14.68 49.9912 14.41 49.3512 14.11C48.7112 13.81 48.2312 13.58 47.9112 13.42C47.5912 13.24 47.1612 12.96 46.6212 12.58C46.1012 12.18 45.7012 11.77 45.4212 11.35C44.6212 10.21 44.2212 8.76 44.2212 7C44.2212 5.24 44.8712 3.76 46.1712 2.56C47.4912 1.34 49.2112 0.729998 51.3312 0.729998C52.7712 0.729998 54.1012 0.889999 55.3212 1.21C56.5412 1.51 57.1712 1.91 57.2112 2.41C57.2112 2.47 57.2112 2.53 57.2112 2.59C57.2112 3.29 56.9912 4.18 56.5512 5.26C56.1112 6.32 55.8012 6.91 55.6212 7.03C54.3412 6.37 53.1912 6.04 52.1712 6.04C51.1712 6.04 50.6712 6.4 50.6712 7.12C50.6712 7.56 51.0412 7.95 51.7812 8.29C51.9412 8.37 52.1712 8.48 52.4712 8.62C52.7712 8.76 53.1112 8.93 53.4912 9.13C53.8912 9.31 54.3112 9.55 54.7512 9.85C55.2112 10.13 55.7012 10.51 56.2212 10.99C57.2812 11.99 57.8112 13.31 57.8112 14.95C57.8112 17.09 57.2212 18.84 56.0412 20.2C54.8612 21.56 53.0412 22.26 50.5812 22.3C49.3812 22.3 48.2912 22.2 47.3112 22C46.3512 21.8 45.5112 21.41 44.7912 20.83C44.0712 20.25 43.7112 19.55 43.7112 18.73C43.7112 17.91 43.8612 17.1 44.1612 16.3C44.4612 15.48 44.7812 14.94 45.1212 14.68ZM74.8287 9.34C75.2087 9.34 75.3987 10.04 75.3987 11.44C75.3987 11.86 75.3487 12.36 75.2487 12.94C75.1687 13.5 75.0087 13.78 74.7687 13.78H70.9587V16.78H76.4787C76.8187 16.78 77.0487 17.22 77.1687 18.1C77.2287 18.48 77.2587 18.89 77.2587 19.33C77.2587 19.75 77.1987 20.3 77.0787 20.98C76.9587 21.66 76.7587 22 76.4787 22H66.2187C65.4587 22 65.0787 21.69 65.0787 21.07V1.78C65.0787 1.26 65.3087 0.999999 65.7687 0.999999H76.5087C76.9287 0.999999 77.1387 1.89 77.1387 3.67C77.1387 5.43 76.9287 6.31 76.5087 6.31H70.9587V9.34H74.8287ZM89.4436 22.09C89.4436 22.23 88.4936 22.3 86.5936 22.3C84.7136 22.3 83.7736 22.24 83.7736 22.12V16.72C83.7736 16.54 84.7136 16.45 86.5936 16.45C88.4936 16.45 89.4436 16.5 89.4436 16.6V22.09ZM101.099 22.09C101.099 22.23 100.149 22.3 98.2491 22.3C96.3691 22.3 95.4291 22.24 95.4291 22.12V16.72C95.4291 16.54 96.3691 16.45 98.2491 16.45C100.149 16.45 101.099 16.5 101.099 16.6V22.09Z"/>
</mask>
<path d="M0.51543 20.23V1.57C0.51543 1.15 1.52543 0.939999 3.54543 0.939999C5.58543 0.939999 6.60543 1.15 6.60543 1.57V16.27H11.2254C11.5854 16.27 11.8354 16.74 11.9754 17.68C12.0354 18.14 12.0654 18.61 12.0654 19.09C12.0654 19.57 12.0354 20.06 11.9754 20.56C11.8154 21.52 11.5554 22 11.1954 22H1.95543C1.51543 22 1.16543 21.82 0.90543 21.46C0.64543 21.1 0.51543 20.69 0.51543 20.23ZM27.5625 22.3C24.7625 22.3 22.4725 21.38 20.6925 19.54C18.9325 17.7 18.0525 15.02 18.0525 11.5C18.0525 7.96 18.9425 5.28 20.7225 3.46C22.5225 1.64 24.8325 0.729998 27.6525 0.729998C30.4925 0.729998 32.7825 1.63 34.5225 3.43C36.2625 5.21 37.1325 7.92 37.1325 11.56C37.1325 15.18 36.2425 17.88 34.4625 19.66C32.6825 21.42 30.3825 22.3 27.5625 22.3ZM27.5925 6.49C26.6325 6.49 25.8225 6.93 25.1625 7.81C24.5225 8.69 24.2025 9.93 24.2025 11.53C24.2025 13.11 24.5125 14.33 25.1325 15.19C25.7525 16.03 26.5625 16.45 27.5625 16.45C28.5825 16.45 29.4025 16.02 30.0225 15.16C30.6625 14.3 30.9825 13.07 30.9825 11.47C30.9825 9.87 30.6525 8.64 29.9925 7.78C29.3525 6.92 28.5525 6.49 27.5925 6.49ZM45.1212 14.68C45.5012 14.98 46.1512 15.39 47.0712 15.91C48.0112 16.43 48.9012 16.69 49.7412 16.69C50.6012 16.69 51.0312 16.36 51.0312 15.7C51.0312 15.4 50.9112 15.14 50.6712 14.92C50.4312 14.68 49.9912 14.41 49.3512 14.11C48.7112 13.81 48.2312 13.58 47.9112 13.42C47.5912 13.24 47.1612 12.96 46.6212 12.58C46.1012 12.18 45.7012 11.77 45.4212 11.35C44.6212 10.21 44.2212 8.76 44.2212 7C44.2212 5.24 44.8712 3.76 46.1712 2.56C47.4912 1.34 49.2112 0.729998 51.3312 0.729998C52.7712 0.729998 54.1012 0.889999 55.3212 1.21C56.5412 1.51 57.1712 1.91 57.2112 2.41C57.2112 2.47 57.2112 2.53 57.2112 2.59C57.2112 3.29 56.9912 4.18 56.5512 5.26C56.1112 6.32 55.8012 6.91 55.6212 7.03C54.3412 6.37 53.1912 6.04 52.1712 6.04C51.1712 6.04 50.6712 6.4 50.6712 7.12C50.6712 7.56 51.0412 7.95 51.7812 8.29C51.9412 8.37 52.1712 8.48 52.4712 8.62C52.7712 8.76 53.1112 8.93 53.4912 9.13C53.8912 9.31 54.3112 9.55 54.7512 9.85C55.2112 10.13 55.7012 10.51 56.2212 10.99C57.2812 11.99 57.8112 13.31 57.8112 14.95C57.8112 17.09 57.2212 18.84 56.0412 20.2C54.8612 21.56 53.0412 22.26 50.5812 22.3C49.3812 22.3 48.2912 22.2 47.3112 22C46.3512 21.8 45.5112 21.41 44.7912 20.83C44.0712 20.25 43.7112 19.55 43.7112 18.73C43.7112 17.91 43.8612 17.1 44.1612 16.3C44.4612 15.48 44.7812 14.94 45.1212 14.68ZM74.8287 9.34C75.2087 9.34 75.3987 10.04 75.3987 11.44C75.3987 11.86 75.3487 12.36 75.2487 12.94C75.1687 13.5 75.0087 13.78 74.7687 13.78H70.9587V16.78H76.4787C76.8187 16.78 77.0487 17.22 77.1687 18.1C77.2287 18.48 77.2587 18.89 77.2587 19.33C77.2587 19.75 77.1987 20.3 77.0787 20.98C76.9587 21.66 76.7587 22 76.4787 22H66.2187C65.4587 22 65.0787 21.69 65.0787 21.07V1.78C65.0787 1.26 65.3087 0.999999 65.7687 0.999999H76.5087C76.9287 0.999999 77.1387 1.89 77.1387 3.67C77.1387 5.43 76.9287 6.31 76.5087 6.31H70.9587V9.34H74.8287ZM89.4436 22.09C89.4436 22.23 88.4936 22.3 86.5936 22.3C84.7136 22.3 83.7736 22.24 83.7736 22.12V16.72C83.7736 16.54 84.7136 16.45 86.5936 16.45C88.4936 16.45 89.4436 16.5 89.4436 16.6V22.09ZM101.099 22.09C101.099 22.23 100.149 22.3 98.2491 22.3C96.3691 22.3 95.4291 22.24 95.4291 22.12V16.72C95.4291 16.54 96.3691 16.45 98.2491 16.45C100.149 16.45 101.099 16.5 101.099 16.6V22.09Z" fill="#DB3114"/>
<path d="M6.60543 16.27H4.60543V18.27H6.60543V16.27ZM11.9754 17.68L13.9586 17.4213L13.9563 17.4033L13.9536 17.3854L11.9754 17.68ZM11.9754 20.56L13.9482 20.8888L13.9557 20.8437L13.9612 20.7983L11.9754 20.56ZM0.90543 21.46L2.52679 20.289H2.52679L0.90543 21.46ZM2.51543 20.23V1.57H-1.48457V20.23H2.51543ZM2.51543 1.57C2.51543 1.94741 2.39373 2.28924 2.21118 2.55492C2.0442 2.79796 1.85949 2.93131 1.76329 2.99131C1.59448 3.09661 1.51476 3.08999 1.68006 3.05562C1.9779 2.9937 2.5685 2.94 3.54543 2.94V-1.06C2.50236 -1.06 1.57796 -1.0087 0.865796 -0.860623C0.526095 -0.789992 0.0676289 -0.665364 -0.353681 -0.402567C-0.79771 -0.125598 -1.48457 0.509147 -1.48457 1.57H2.51543ZM3.54543 2.94C4.53272 2.94 5.13242 2.99368 5.43712 3.05641C5.6061 3.0912 5.52978 3.09886 5.3632 2.99597C5.26832 2.93737 5.08288 2.80525 4.91444 2.56251C4.72993 2.29659 4.60543 1.95213 4.60543 1.57H8.60543C8.60543 0.499525 7.90649 -0.134643 7.46516 -0.407223C7.04358 -0.667615 6.58476 -0.791204 6.24374 -0.861415C5.52844 -1.00868 4.59814 -1.06 3.54543 -1.06V2.94ZM4.60543 1.57V16.27H8.60543V1.57H4.60543ZM6.60543 18.27H11.2254V14.27H6.60543V18.27ZM11.2254 18.27C10.8421 18.27 10.5018 18.1332 10.2541 17.9424C10.0359 17.7743 9.94041 17.6054 9.91719 17.5617C9.89095 17.5124 9.89903 17.5126 9.92218 17.5963C9.94395 17.675 9.9709 17.7977 9.99725 17.9746L13.9536 17.3854C13.8721 16.838 13.7336 16.219 13.4487 15.6833C13.161 15.1425 12.4689 14.27 11.2254 14.27V18.27ZM9.99223 17.9387C10.0407 18.31 10.0654 18.6935 10.0654 19.09H14.0654C14.0654 18.5265 14.0302 17.97 13.9586 17.4213L9.99223 17.9387ZM10.0654 19.09C10.0654 19.4866 10.0406 19.8969 9.98968 20.3217L13.9612 20.7983C14.0302 20.2231 14.0654 19.6534 14.0654 19.09H10.0654ZM10.0026 20.2312C9.97205 20.4147 9.94164 20.5444 9.91668 20.63C9.8903 20.7205 9.87949 20.7287 9.90185 20.6874C9.92074 20.6526 10.0116 20.4917 10.2223 20.3286C10.4621 20.1429 10.802 20 11.1954 20V24C12.4475 24 13.1371 23.113 13.419 22.5926C13.7064 22.062 13.8556 21.4443 13.9482 20.8888L10.0026 20.2312ZM11.1954 20H1.95543V24H11.1954V20ZM1.95543 20C2.01558 20 2.1377 20.0145 2.27763 20.0864C2.4169 20.158 2.49625 20.2467 2.52679 20.289L-0.715929 22.631C-0.0840613 23.5059 0.866184 24 1.95543 24V20ZM2.52679 20.289C2.5212 20.2813 2.51919 20.2773 2.519 20.2769C2.51885 20.2766 2.51916 20.2773 2.51939 20.278C2.5196 20.2787 2.5188 20.2765 2.51784 20.2701C2.51687 20.2635 2.51543 20.2506 2.51543 20.23H-1.48457C-1.48457 21.0943 -1.23135 21.9173 -0.715929 22.631L2.52679 20.289ZM20.6925 19.54L19.2472 20.9225L19.2551 20.9306L20.6925 19.54ZM20.7225 3.46L19.3005 2.0536L19.2927 2.06159L20.7225 3.46ZM34.5225 3.43L33.0845 4.82007L33.0923 4.82805L34.5225 3.43ZM34.4625 19.66L35.8688 21.0822L35.8768 21.0742L34.4625 19.66ZM25.1625 7.81L23.5625 6.61L23.5537 6.62176L23.5451 6.63366L25.1625 7.81ZM25.1325 15.19L23.5102 16.3596L23.5167 16.3687L23.5234 16.3777L25.1325 15.19ZM30.0225 15.16L28.4181 13.966L28.409 13.9781L28.4002 13.9904L30.0225 15.16ZM29.9925 7.78L28.3881 8.97402L28.3969 8.98589L28.4059 8.99764L29.9925 7.78ZM27.5625 20.3C25.2483 20.3 23.4958 19.5613 22.13 18.1494L19.2551 20.9306C21.4492 23.1987 24.2768 24.3 27.5625 24.3V20.3ZM22.1378 18.1576C20.8513 16.8125 20.0525 14.7045 20.0525 11.5H16.0525C16.0525 15.3355 17.0138 18.5875 19.2473 20.9224L22.1378 18.1576ZM20.0525 11.5C20.0525 8.27572 20.8608 6.17903 22.1524 4.85841L19.2927 2.06159C17.0243 4.38097 16.0525 7.64428 16.0525 11.5H20.0525ZM22.1445 4.86638C23.5288 3.46672 25.3071 2.73 27.6525 2.73V-1.27C24.358 -1.27 21.5163 -0.18672 19.3005 2.05362L22.1445 4.86638ZM27.6525 2.73C30.0301 2.73 31.7735 3.46373 33.0846 4.82004L35.9605 2.03996C33.7916 -0.203731 30.955 -1.27 27.6525 -1.27V2.73ZM33.0923 4.82805C34.3279 6.09197 35.1325 8.20224 35.1325 11.56H39.1325C39.1325 7.63776 38.1972 4.32802 35.9527 2.03195L33.0923 4.82805ZM35.1325 11.56C35.1325 14.883 34.3154 16.9787 33.0483 18.2458L35.8768 21.0742C38.1697 18.7813 39.1325 15.477 39.1325 11.56H35.1325ZM33.0563 18.2378C31.6994 19.5795 29.9286 20.3 27.5625 20.3V24.3C30.8365 24.3 33.6657 23.2605 35.8687 21.0822L33.0563 18.2378ZM27.5925 4.49C25.9052 4.49 24.5374 5.31014 23.5625 6.61L26.7625 9.01C27.1076 8.54986 27.3599 8.49 27.5925 8.49V4.49ZM23.5451 6.63366C22.5642 7.98232 22.2025 9.69711 22.2025 11.53H26.2025C26.2025 10.1629 26.4809 9.39767 26.78 8.98634L23.5451 6.63366ZM22.2025 11.53C22.2025 13.3346 22.5509 15.029 23.5102 16.3596L26.7549 14.0204C26.4742 13.631 26.2025 12.8854 26.2025 11.53H22.2025ZM23.5234 16.3777C24.5009 17.7021 25.8955 18.45 27.5625 18.45V14.45C27.2296 14.45 27.0041 14.3579 26.7417 14.0023L23.5234 16.3777ZM27.5625 18.45C29.2547 18.45 30.6665 17.6868 31.6449 16.3296L28.4002 13.9904C28.1386 14.3532 27.9104 14.45 27.5625 14.45V18.45ZM31.627 16.354C32.6226 15.0162 32.9825 13.2986 32.9825 11.47H28.9825C28.9825 12.8414 28.7025 13.5838 28.4181 13.966L31.627 16.354ZM32.9825 11.47C32.9825 9.63067 32.6082 7.90318 31.5792 6.56236L28.4059 8.99764C28.6969 9.37681 28.9825 10.1093 28.9825 11.47H32.9825ZM31.597 6.58598C30.6303 5.28694 29.265 4.49 27.5925 4.49V8.49C27.8401 8.49 28.0748 8.55306 28.3881 8.97402L31.597 6.58598ZM45.1212 14.68L46.3605 13.1102L45.1408 12.1473L43.9063 13.0913L45.1212 14.68ZM47.0712 15.91L46.0871 17.6511L46.0951 17.6556L46.1031 17.6601L47.0712 15.91ZM50.6712 14.92L49.257 16.3342L49.2877 16.3649L49.3198 16.3943L50.6712 14.92ZM49.3512 14.11L48.5023 15.9209L49.3512 14.11ZM47.9112 13.42L46.9307 15.1632L46.9732 15.1871L47.0168 15.2089L47.9112 13.42ZM46.6212 12.58L45.4018 14.1652L45.4355 14.1912L45.4702 14.2156L46.6212 12.58ZM45.4212 11.35L47.0853 10.2406L47.0721 10.2207L47.0583 10.2011L45.4212 11.35ZM46.1712 2.56L47.5278 4.02961L47.5287 4.02875L46.1712 2.56ZM55.3212 1.21L54.8138 3.14456L54.8287 3.14847L54.8436 3.15214L55.3212 1.21ZM57.2112 2.41H59.2112V2.33013L59.2048 2.25051L57.2112 2.41ZM56.5512 5.26L58.3984 6.02677L58.4034 6.01459L56.5512 5.26ZM55.6212 7.03L54.7046 8.80761L55.751 9.34715L56.7306 8.6941L55.6212 7.03ZM51.7812 8.29L52.6756 6.50115L52.6462 6.48641L52.6162 6.47265L51.7812 8.29ZM52.4712 8.62L51.6254 10.4324L52.4712 8.62ZM53.4912 9.13L52.5597 10.8998L52.6143 10.9285L52.6705 10.9538L53.4912 9.13ZM54.7512 9.85L53.6245 11.5025L53.6672 11.5315L53.7113 11.5584L54.7512 9.85ZM56.2212 10.99L57.5937 9.53521L57.5858 9.52776L57.5778 9.52039L56.2212 10.99ZM56.0412 20.2L57.5519 21.5107H57.5519L56.0412 20.2ZM50.5812 22.3V24.3H50.5975L50.6137 24.2997L50.5812 22.3ZM47.3112 22L46.9033 23.958L46.9113 23.9596L47.3112 22ZM44.7912 20.83L46.0459 19.2725L44.7912 20.83ZM44.1612 16.3L46.0339 17.0022L46.0367 16.9947L46.0395 16.9872L44.1612 16.3ZM43.8819 16.2498C44.3914 16.652 45.1568 17.1253 46.0871 17.6511L48.0553 14.1689C47.1456 13.6547 46.611 13.308 46.3605 13.1102L43.8819 16.2498ZM46.1031 17.6601C47.2587 18.2993 48.4809 18.69 49.7412 18.69V14.69C49.3215 14.69 48.7637 14.5607 48.0393 14.1599L46.1031 17.6601ZM49.7412 18.69C50.3709 18.69 51.21 18.5789 51.9263 18.0291C52.743 17.4024 53.0312 16.501 53.0312 15.7H49.0312C49.0312 15.6505 49.0392 15.5135 49.1161 15.3363C49.1983 15.1473 49.3305 14.9791 49.4911 14.8559C49.7775 14.6361 49.9716 14.69 49.7412 14.69V18.69ZM53.0312 15.7C53.0312 14.7881 52.6365 14.0084 52.0227 13.4457L49.3198 16.3943C49.2709 16.3495 49.1906 16.2596 49.1253 16.1181C49.0582 15.9728 49.0312 15.8253 49.0312 15.7H53.0312ZM52.0854 13.5058C51.5844 13.0048 50.8731 12.6145 50.2001 12.2991L48.5023 15.9209C48.7775 16.0499 48.9772 16.1575 49.1152 16.2421C49.2631 16.3329 49.2894 16.3666 49.257 16.3342L52.0854 13.5058ZM50.2001 12.2991C49.5637 12.0008 49.1023 11.7795 48.8056 11.6311L47.0168 15.2089C47.3601 15.3805 47.8587 15.6192 48.5023 15.9209L50.2001 12.2991ZM48.8917 11.6768C48.659 11.546 48.2931 11.311 47.7722 10.9444L45.4702 14.2156C46.0293 14.609 46.5234 14.934 46.9307 15.1632L48.8917 11.6768ZM47.8406 10.9948C47.4448 10.6903 47.2139 10.4336 47.0853 10.2406L43.7571 12.4594C44.1885 13.1064 44.7576 13.6697 45.4018 14.1652L47.8406 10.9948ZM47.0583 10.2011C46.5501 9.47698 46.2212 8.45768 46.2212 7H42.2212C42.2212 9.06231 42.6923 10.943 43.7841 12.4988L47.0583 10.2011ZM46.2212 7C46.2212 5.80151 46.6355 4.85325 47.5278 4.02961L44.8146 1.09039C43.1069 2.66675 42.2212 4.67849 42.2212 7H46.2212ZM47.5287 4.02875C48.4142 3.21033 49.6184 2.73 51.3312 2.73V-1.27C48.804 -1.27 46.5682 -0.530328 44.8137 1.09125L47.5287 4.02875ZM51.3312 2.73C52.6237 2.73 53.7809 2.87363 54.8138 3.14456L55.8286 -0.724559C54.4215 -1.09364 52.9188 -1.27 51.3312 -1.27V2.73ZM54.8436 3.15214C55.0903 3.2128 55.2787 3.27168 55.4178 3.32432C55.5602 3.37819 55.6242 3.41551 55.6367 3.42343C55.6522 3.43329 55.5677 3.38422 55.4663 3.24804C55.353 3.09583 55.241 2.86238 55.2176 2.56949L59.2048 2.25051C59.1139 1.11361 58.3572 0.412585 57.7807 0.0465727C57.1997 -0.322338 56.4961 -0.560668 55.7988 -0.732144L54.8436 3.15214ZM55.2112 2.41C55.2112 2.41012 55.2112 2.41023 55.2112 2.41035C55.2112 2.41047 55.2112 2.41058 55.2112 2.4107C55.2112 2.41082 55.2112 2.41094 55.2112 2.41105C55.2112 2.41117 55.2112 2.41129 55.2112 2.4114C55.2112 2.41152 55.2112 2.41164 55.2112 2.41176C55.2112 2.41187 55.2112 2.41199 55.2112 2.41211C55.2112 2.41222 55.2112 2.41234 55.2112 2.41246C55.2112 2.41258 55.2112 2.41269 55.2112 2.41281C55.2112 2.41293 55.2112 2.41304 55.2112 2.41316C55.2112 2.41328 55.2112 2.4134 55.2112 2.41351C55.2112 2.41363 55.2112 2.41375 55.2112 2.41387C55.2112 2.41398 55.2112 2.4141 55.2112 2.41422C55.2112 2.41433 55.2112 2.41445 55.2112 2.41457C55.2112 2.41469 55.2112 2.4148 55.2112 2.41492C55.2112 2.41504 55.2112 2.41515 55.2112 2.41527C55.2112 2.41539 55.2112 2.41551 55.2112 2.41562C55.2112 2.41574 55.2112 2.41586 55.2112 2.41597C55.2112 2.41609 55.2112 2.41621 55.2112 2.41633C55.2112 2.41644 55.2112 2.41656 55.2112 2.41668C55.2112 2.41679 55.2112 2.41691 55.2112 2.41703C55.2112 2.41715 55.2112 2.41726 55.2112 2.41738C55.2112 2.4175 55.2112 2.41762 55.2112 2.41773C55.2112 2.41785 55.2112 2.41797 55.2112 2.41808C55.2112 2.4182 55.2112 2.41832 55.2112 2.41844C55.2112 2.41855 55.2112 2.41867 55.2112 2.41879C55.2112 2.4189 55.2112 2.41902 55.2112 2.41914C55.2112 2.41926 55.2112 2.41937 55.2112 2.41949C55.2112 2.41961 55.2112 2.41972 55.2112 2.41984C55.2112 2.41996 55.2112 2.42008 55.2112 2.42019C55.2112 2.42031 55.2112 2.42043 55.2112 2.42055C55.2112 2.42066 55.2112 2.42078 55.2112 2.4209C55.2112 2.42101 55.2112 2.42113 55.2112 2.42125C55.2112 2.42137 55.2112 2.42148 55.2112 2.4216C55.2112 2.42172 55.2112 2.42183 55.2112 2.42195C55.2112 2.42207 55.2112 2.42219 55.2112 2.4223C55.2112 2.42242 55.2112 2.42254 55.2112 2.42266C55.2112 2.42277 55.2112 2.42289 55.2112 2.42301C55.2112 2.42312 55.2112 2.42324 55.2112 2.42336C55.2112 2.42348 55.2112 2.42359 55.2112 2.42371C55.2112 2.42383 55.2112 2.42394 55.2112 2.42406C55.2112 2.42418 55.2112 2.4243 55.2112 2.42441C55.2112 2.42453 55.2112 2.42465 55.2112 2.42476C55.2112 2.42488 55.2112 2.425 55.2112 2.42512C55.2112 2.42523 55.2112 2.42535 55.2112 2.42547C55.2112 2.42558 55.2112 2.4257 55.2112 2.42582C55.2112 2.42594 55.2112 2.42605 55.2112 2.42617C55.2112 2.42629 55.2112 2.4264 55.2112 2.42652C55.2112 2.42664 55.2112 2.42676 55.2112 2.42687C55.2112 2.42699 55.2112 2.42711 55.2112 2.42723C55.2112 2.42734 55.2112 2.42746 55.2112 2.42758C55.2112 2.42769 55.2112 2.42781 55.2112 2.42793C55.2112 2.42805 55.2112 2.42816 55.2112 2.42828C55.2112 2.4284 55.2112 2.42851 55.2112 2.42863C55.2112 2.42875 55.2112 2.42887 55.2112 2.42898C55.2112 2.4291 55.2112 2.42922 55.2112 2.42933C55.2112 2.42945 55.2112 2.42957 55.2112 2.42969C55.2112 2.4298 55.2112 2.42992 55.2112 2.43004C55.2112 2.43015 55.2112 2.43027 55.2112 2.43039C55.2112 2.43051 55.2112 2.43062 55.2112 2.43074C55.2112 2.43086 55.2112 2.43097 55.2112 2.43109C55.2112 2.43121 55.2112 2.43133 55.2112 2.43144C55.2112 2.43156 55.2112 2.43168 55.2112 2.4318C55.2112 2.43191 55.2112 2.43203 55.2112 2.43215C55.2112 2.43226 55.2112 2.43238 55.2112 2.4325C55.2112 2.43262 55.2112 2.43273 55.2112 2.43285C55.2112 2.43297 55.2112 2.43308 55.2112 2.4332C55.2112 2.43332 55.2112 2.43344 55.2112 2.43355C55.2112 2.43367 55.2112 2.43379 55.2112 2.4339C55.2112 2.43402 55.2112 2.43414 55.2112 2.43426C55.2112 2.43437 55.2112 2.43449 55.2112 2.43461C55.2112 2.43472 55.2112 2.43484 55.2112 2.43496C55.2112 2.43508 55.2112 2.43519 55.2112 2.43531C55.2112 2.43543 55.2112 2.43554 55.2112 2.43566C55.2112 2.43578 55.2112 2.4359 55.2112 2.43601C55.2112 2.43613 55.2112 2.43625 55.2112 2.43637C55.2112 2.43648 55.2112 2.4366 55.2112 2.43672C55.2112 2.43683 55.2112 2.43695 55.2112 2.43707C55.2112 2.43719 55.2112 2.4373 55.2112 2.43742C55.2112 2.43754 55.2112 2.43765 55.2112 2.43777C55.2112 2.43789 55.2112 2.43801 55.2112 2.43812C55.2112 2.43824 55.2112 2.43836 55.2112 2.43847C55.2112 2.43859 55.2112 2.43871 55.2112 2.43883C55.2112 2.43894 55.2112 2.43906 55.2112 2.43918C55.2112 2.4393 55.2112 2.43941 55.2112 2.43953C55.2112 2.43965 55.2112 2.43976 55.2112 2.43988C55.2112 2.44 55.2112 2.44012 55.2112 2.44023C55.2112 2.44035 55.2112 2.44047 55.2112 2.44058C55.2112 2.4407 55.2112 2.44082 55.2112 2.44094C55.2112 2.44105 55.2112 2.44117 55.2112 2.44129C55.2112 2.4414 55.2112 2.44152 55.2112 2.44164C55.2112 2.44176 55.2112 2.44187 55.2112 2.44199C55.2112 2.44211 55.2112 2.44223 55.2112 2.44234C55.2112 2.44246 55.2112 2.44258 55.2112 2.44269C55.2112 2.44281 55.2112 2.44293 55.2112 2.44305C55.2112 2.44316 55.2112 2.44328 55.2112 2.4434C55.2112 2.44351 55.2112 2.44363 55.2112 2.44375C55.2112 2.44387 55.2112 2.44398 55.2112 2.4441C55.2112 2.44422 55.2112 2.44433 55.2112 2.44445C55.2112 2.44457 55.2112 2.44469 55.2112 2.4448C55.2112 2.44492 55.2112 2.44504 55.2112 2.44516C55.2112 2.44527 55.2112 2.44539 55.2112 2.44551C55.2112 2.44562 55.2112 2.44574 55.2112 2.44586C55.2112 2.44598 55.2112 2.44609 55.2112 2.44621C55.2112 2.44633 55.2112 2.44644 55.2112 2.44656C55.2112 2.44668 55.2112 2.4468 55.2112 2.44691C55.2112 2.44703 55.2112 2.44715 55.2112 2.44726C55.2112 2.44738 55.2112 2.4475 55.2112 2.44762C55.2112 2.44773 55.2112 2.44785 55.2112 2.44797C55.2112 2.44808 55.2112 2.4482 55.2112 2.44832C55.2112 2.44844 55.2112 2.44855 55.2112 2.44867C55.2112 2.44879 55.2112 2.4489 55.2112 2.44902C55.2112 2.44914 55.2112 2.44926 55.2112 2.44937C55.2112 2.44949 55.2112 2.44961 55.2112 2.44973C55.2112 2.44984 55.2112 2.44996 55.2112 2.45008C55.2112 2.45019 55.2112 2.45031 55.2112 2.45043C55.2112 2.45055 55.2112 2.45066 55.2112 2.45078C55.2112 2.4509 55.2112 2.45101 55.2112 2.45113C55.2112 2.45125 55.2112 2.45137 55.2112 2.45148C55.2112 2.4516 55.2112 2.45172 55.2112 2.45183C55.2112 2.45195 55.2112 2.45207 55.2112 2.45219C55.2112 2.4523 55.2112 2.45242 55.2112 2.45254C55.2112 2.45265 55.2112 2.45277 55.2112 2.45289C55.2112 2.45301 55.2112 2.45312 55.2112 2.45324C55.2112 2.45336 55.2112 2.45347 55.2112 2.45359C55.2112 2.45371 55.2112 2.45383 55.2112 2.45394C55.2112 2.45406 55.2112 2.45418 55.2112 2.4543C55.2112 2.45441 55.2112 2.45453 55.2112 2.45465C55.2112 2.45476 55.2112 2.45488 55.2112 2.455C55.2112 2.45512 55.2112 2.45523 55.2112 2.45535C55.2112 2.45547 55.2112 2.45558 55.2112 2.4557C55.2112 2.45582 55.2112 2.45594 55.2112 2.45605C55.2112 2.45617 55.2112 2.45629 55.2112 2.4564C55.2112 2.45652 55.2112 2.45664 55.2112 2.45676C55.2112 2.45687 55.2112 2.45699 55.2112 2.45711C55.2112 2.45722 55.2112 2.45734 55.2112 2.45746C55.2112 2.45758 55.2112 2.45769 55.2112 2.45781C55.2112 2.45793 55.2112 2.45805 55.2112 2.45816C55.2112 2.45828 55.2112 2.4584 55.2112 2.45851C55.2112 2.45863 55.2112 2.45875 55.2112 2.45887C55.2112 2.45898 55.2112 2.4591 55.2112 2.45922C55.2112 2.45933 55.2112 2.45945 55.2112 2.45957C55.2112 2.45969 55.2112 2.4598 55.2112 2.45992C55.2112 2.46004 55.2112 2.46015 55.2112 2.46027C55.2112 2.46039 55.2112 2.46051 55.2112 2.46062C55.2112 2.46074 55.2112 2.46086 55.2112 2.46098C55.2112 2.46109 55.2112 2.46121 55.2112 2.46133C55.2112 2.46144 55.2112 2.46156 55.2112 2.46168C55.2112 2.4618 55.2112 2.46191 55.2112 2.46203C55.2112 2.46215 55.2112 2.46226 55.2112 2.46238C55.2112 2.4625 55.2112 2.46262 55.2112 2.46273C55.2112 2.46285 55.2112 2.46297 55.2112 2.46308C55.2112 2.4632 55.2112 2.46332 55.2112 2.46344C55.2112 2.46355 55.2112 2.46367 55.2112 2.46379C55.2112 2.46391 55.2112 2.46402 55.2112 2.46414C55.2112 2.46426 55.2112 2.46437 55.2112 2.46449C55.2112 2.46461 55.2112 2.46473 55.2112 2.46484C55.2112 2.46496 55.2112 2.46508 55.2112 2.46519C55.2112 2.46531 55.2112 2.46543 55.2112 2.46555C55.2112 2.46566 55.2112 2.46578 55.2112 2.4659C55.2112 2.46601 55.2112 2.46613 55.2112 2.46625C55.2112 2.46637 55.2112 2.46648 55.2112 2.4666C55.2112 2.46672 55.2112 2.46684 55.2112 2.46695C55.2112 2.46707 55.2112 2.46719 55.2112 2.4673C55.2112 2.46742 55.2112 2.46754 55.2112 2.46766C55.2112 2.46777 55.2112 2.46789 55.2112 2.46801C55.2112 2.46812 55.2112 2.46824 55.2112 2.46836C55.2112 2.46848 55.2112 2.46859 55.2112 2.46871C55.2112 2.46883 55.2112 2.46894 55.2112 2.46906C55.2112 2.46918 55.2112 2.4693 55.2112 2.46941C55.2112 2.46953 55.2112 2.46965 55.2112 2.46976C55.2112 2.46988 55.2112 2.47 55.2112 2.47012C55.2112 2.47023 55.2112 2.47035 55.2112 2.47047C55.2112 2.47058 55.2112 2.4707 55.2112 2.47082C55.2112 2.47094 55.2112 2.47105 55.2112 2.47117C55.2112 2.47129 55.2112 2.47141 55.2112 2.47152C55.2112 2.47164 55.2112 2.47176 55.2112 2.47187C55.2112 2.47199 55.2112 2.47211 55.2112 2.47223C55.2112 2.47234 55.2112 2.47246 55.2112 2.47258C55.2112 2.47269 55.2112 2.47281 55.2112 2.47293C55.2112 2.47305 55.2112 2.47316 55.2112 2.47328C55.2112 2.4734 55.2112 2.47351 55.2112 2.47363C55.2112 2.47375 55.2112 2.47387 55.2112 2.47398C55.2112 2.4741 55.2112 2.47422 55.2112 2.47433C55.2112 2.47445 55.2112 2.47457 55.2112 2.47469C55.2112 2.4748 55.2112 2.47492 55.2112 2.47504C55.2112 2.47515 55.2112 2.47527 55.2112 2.47539C55.2112 2.47551 55.2112 2.47562 55.2112 2.47574C55.2112 2.47586 55.2112 2.47598 55.2112 2.47609C55.2112 2.47621 55.2112 2.47633 55.2112 2.47644C55.2112 2.47656 55.2112 2.47668 55.2112 2.4768C55.2112 2.47691 55.2112 2.47703 55.2112 2.47715C55.2112 2.47726 55.2112 2.47738 55.2112 2.4775C55.2112 2.47762 55.2112 2.47773 55.2112 2.47785C55.2112 2.47797 55.2112 2.47808 55.2112 2.4782C55.2112 2.47832 55.2112 2.47844 55.2112 2.47855C55.2112 2.47867 55.2112 2.47879 55.2112 2.4789C55.2112 2.47902 55.2112 2.47914 55.2112 2.47926C55.2112 2.47937 55.2112 2.47949 55.2112 2.47961C55.2112 2.47972 55.2112 2.47984 55.2112 2.47996C55.2112 2.48008 55.2112 2.48019 55.2112 2.48031C55.2112 2.48043 55.2112 2.48055 55.2112 2.48066C55.2112 2.48078 55.2112 2.4809 55.2112 2.48101C55.2112 2.48113 55.2112 2.48125 55.2112 2.48137C55.2112 2.48148 55.2112 2.4816 55.2112 2.48172C55.2112 2.48183 55.2112 2.48195 55.2112 2.48207C55.2112 2.48219 55.2112 2.4823 55.2112 2.48242C55.2112 2.48254 55.2112 2.48266 55.2112 2.48277C55.2112 2.48289 55.2112 2.48301 55.2112 2.48312C55.2112 2.48324 55.2112 2.48336 55.2112 2.48348C55.2112 2.48359 55.2112 2.48371 55.2112 2.48383C55.2112 2.48394 55.2112 2.48406 55.2112 2.48418C55.2112 2.4843 55.2112 2.48441 55.2112 2.48453C55.2112 2.48465 55.2112 2.48476 55.2112 2.48488C55.2112 2.485 55.2112 2.48512 55.2112 2.48523C55.2112 2.48535 55.2112 2.48547 55.2112 2.48559C55.2112 2.4857 55.2112 2.48582 55.2112 2.48594C55.2112 2.48605 55.2112 2.48617 55.2112 2.48629C55.2112 2.48641 55.2112 2.48652 55.2112 2.48664C55.2112 2.48676 55.2112 2.48687 55.2112 2.48699C55.2112 2.48711 55.2112 2.48723 55.2112 2.48734C55.2112 2.48746 55.2112 2.48758 55.2112 2.48769C55.2112 2.48781 55.2112 2.48793 55.2112 2.48805C55.2112 2.48816 55.2112 2.48828 55.2112 2.4884C55.2112 2.48851 55.2112 2.48863 55.2112 2.48875C55.2112 2.48887 55.2112 2.48898 55.2112 2.4891C55.2112 2.48922 55.2112 2.48934 55.2112 2.48945C55.2112 2.48957 55.2112 2.48969 55.2112 2.4898C55.2112 2.48992 55.2112 2.49004 55.2112 2.49016C55.2112 2.49027 55.2112 2.49039 55.2112 2.49051C55.2112 2.49062 55.2112 2.49074 55.2112 2.49086C55.2112 2.49098 55.2112 2.49109 55.2112 2.49121C55.2112 2.49133 55.2112 2.49144 55.2112 2.49156C55.2112 2.49168 55.2112 2.4918 55.2112 2.49191C55.2112 2.49203 55.2112 2.49215 55.2112 2.49226C55.2112 2.49238 55.2112 2.4925 55.2112 2.49262C55.2112 2.49273 55.2112 2.49285 55.2112 2.49297C55.2112 2.49308 55.2112 2.4932 55.2112 2.49332C55.2112 2.49344 55.2112 2.49355 55.2112 2.49367C55.2112 2.49379 55.2112 2.49391 55.2112 2.49402C55.2112 2.49414 55.2112 2.49426 55.2112 2.49437C55.2112 2.49449 55.2112 2.49461 55.2112 2.49473C55.2112 2.49484 55.2112 2.49496 55.2112 2.49508C55.2112 2.49519 55.2112 2.49531 55.2112 2.49543C55.2112 2.49555 55.2112 2.49566 55.2112 2.49578C55.2112 2.4959 55.2112 2.49601 55.2112 2.49613C55.2112 2.49625 55.2112 2.49637 55.2112 2.49648C55.2112 2.4966 55.2112 2.49672 55.2112 2.49683C55.2112 2.49695 55.2112 2.49707 55.2112 2.49719C55.2112 2.4973 55.2112 2.49742 55.2112 2.49754C55.2112 2.49765 55.2112 2.49777 55.2112 2.49789C55.2112 2.49801 55.2112 2.49812 55.2112 2.49824C55.2112 2.49836 55.2112 2.49848 55.2112 2.49859C55.2112 2.49871 55.2112 2.49883 55.2112 2.49894C55.2112 2.49906 55.2112 2.49918 55.2112 2.4993C55.2112 2.49941 55.2112 2.49953 55.2112 2.49965C55.2112 2.49976 55.2112 2.49988 55.2112 2.5C55.2112 2.50012 55.2112 2.50023 55.2112 2.50035C55.2112 2.50047 55.2112 2.50058 55.2112 2.5007C55.2112 2.50082 55.2112 2.50094 55.2112 2.50105C55.2112 2.50117 55.2112 2.50129 55.2112 2.5014C55.2112 2.50152 55.2112 2.50164 55.2112 2.50176C55.2112 2.50187 55.2112 2.50199 55.2112 2.50211C55.2112 2.50223 55.2112 2.50234 55.2112 2.50246C55.2112 2.50258 55.2112 2.50269 55.2112 2.50281C55.2112 2.50293 55.2112 2.50305 55.2112 2.50316C55.2112 2.50328 55.2112 2.5034 55.2112 2.50351C55.2112 2.50363 55.2112 2.50375 55.2112 2.50387C55.2112 2.50398 55.2112 2.5041 55.2112 2.50422C55.2112 2.50433 55.2112 2.50445 55.2112 2.50457C55.2112 2.50469 55.2112 2.5048 55.2112 2.50492C55.2112 2.50504 55.2112 2.50516 55.2112 2.50527C55.2112 2.50539 55.2112 2.50551 55.2112 2.50562C55.2112 2.50574 55.2112 2.50586 55.2112 2.50598C55.2112 2.50609 55.2112 2.50621 55.2112 2.50633C55.2112 2.50644 55.2112 2.50656 55.2112 2.50668C55.2112 2.5068 55.2112 2.50691 55.2112 2.50703C55.2112 2.50715 55.2112 2.50726 55.2112 2.50738C55.2112 2.5075 55.2112 2.50762 55.2112 2.50773C55.2112 2.50785 55.2112 2.50797 55.2112 2.50809C55.2112 2.5082 55.2112 2.50832 55.2112 2.50844C55.2112 2.50855 55.2112 2.50867 55.2112 2.50879C55.2112 2.50891 55.2112 2.50902 55.2112 2.50914C55.2112 2.50926 55.2112 2.50937 55.2112 2.50949C55.2112 2.50961 55.2112 2.50973 55.2112 2.50984C55.2112 2.50996 55.2112 2.51008 55.2112 2.51019C55.2112 2.51031 55.2112 2.51043 55.2112 2.51055C55.2112 2.51066 55.2112 2.51078 55.2112 2.5109C55.2112 2.51101 55.2112 2.51113 55.2112 2.51125C55.2112 2.51137 55.2112 2.51148 55.2112 2.5116C55.2112 2.51172 55.2112 2.51184 55.2112 2.51195C55.2112 2.51207 55.2112 2.51219 55.2112 2.5123C55.2112 2.51242 55.2112 2.51254 55.2112 2.51266C55.2112 2.51277 55.2112 2.51289 55.2112 2.51301C55.2112 2.51312 55.2112 2.51324 55.2112 2.51336C55.2112 2.51348 55.2112 2.51359 55.2112 2.51371C55.2112 2.51383 55.2112 2.51394 55.2112 2.51406C55.2112 2.51418 55.2112 2.5143 55.2112 2.51441C55.2112 2.51453 55.2112 2.51465 55.2112 2.51476C55.2112 2.51488 55.2112 2.515 55.2112 2.51512C55.2112 2.51523 55.2112 2.51535 55.2112 2.51547C55.2112 2.51558 55.2112 2.5157 55.2112 2.51582C55.2112 2.51594 55.2112 2.51605 55.2112 2.51617C55.2112 2.51629 55.2112 2.51641 55.2112 2.51652C55.2112 2.51664 55.2112 2.51676 55.2112 2.51687C55.2112 2.51699 55.2112 2.51711 55.2112 2.51723C55.2112 2.51734 55.2112 2.51746 55.2112 2.51758C55.2112 2.51769 55.2112 2.51781 55.2112 2.51793C55.2112 2.51805 55.2112 2.51816 55.2112 2.51828C55.2112 2.5184 55.2112 2.51851 55.2112 2.51863C55.2112 2.51875 55.2112 2.51887 55.2112 2.51898C55.2112 2.5191 55.2112 2.51922 55.2112 2.51933C55.2112 2.51945 55.2112 2.51957 55.2112 2.51969C55.2112 2.5198 55.2112 2.51992 55.2112 2.52004C55.2112 2.52015 55.2112 2.52027 55.2112 2.52039C55.2112 2.52051 55.2112 2.52062 55.2112 2.52074C55.2112 2.52086 55.2112 2.52098 55.2112 2.52109C55.2112 2.52121 55.2112 2.52133 55.2112 2.52144C55.2112 2.52156 55.2112 2.52168 55.2112 2.5218C55.2112 2.52191 55.2112 2.52203 55.2112 2.52215C55.2112 2.52226 55.2112 2.52238 55.2112 2.5225C55.2112 2.52262 55.2112 2.52273 55.2112 2.52285C55.2112 2.52297 55.2112 2.52308 55.2112 2.5232C55.2112 2.52332 55.2112 2.52344 55.2112 2.52355C55.2112 2.52367 55.2112 2.52379 55.2112 2.52391C55.2112 2.52402 55.2112 2.52414 55.2112 2.52426C55.2112 2.52437 55.2112 2.52449 55.2112 2.52461C55.2112 2.52473 55.2112 2.52484 55.2112 2.52496C55.2112 2.52508 55.2112 2.52519 55.2112 2.52531C55.2112 2.52543 55.2112 2.52555 55.2112 2.52566C55.2112 2.52578 55.2112 2.5259 55.2112 2.52601C55.2112 2.52613 55.2112 2.52625 55.2112 2.52637C55.2112 2.52648 55.2112 2.5266 55.2112 2.52672C55.2112 2.52684 55.2112 2.52695 55.2112 2.52707C55.2112 2.52719 55.2112 2.5273 55.2112 2.52742C55.2112 2.52754 55.2112 2.52766 55.2112 2.52777C55.2112 2.52789 55.2112 2.52801 55.2112 2.52812C55.2112 2.52824 55.2112 2.52836 55.2112 2.52848C55.2112 2.52859 55.2112 2.52871 55.2112 2.52883C55.2112 2.52894 55.2112 2.52906 55.2112 2.52918C55.2112 2.5293 55.2112 2.52941 55.2112 2.52953C55.2112 2.52965 55.2112 2.52977 55.2112 2.52988C55.2112 2.53 55.2112 2.53012 55.2112 2.53023C55.2112 2.53035 55.2112 2.53047 55.2112 2.53059C55.2112 2.5307 55.2112 2.53082 55.2112 2.53094C55.2112 2.53105 55.2112 2.53117 55.2112 2.53129C55.2112 2.53141 55.2112 2.53152 55.2112 2.53164C55.2112 2.53176 55.2112 2.53187 55.2112 2.53199C55.2112 2.53211 55.2112 2.53223 55.2112 2.53234C55.2112 2.53246 55.2112 2.53258 55.2112 2.53269C55.2112 2.53281 55.2112 2.53293 55.2112 2.53305C55.2112 2.53316 55.2112 2.53328 55.2112 2.5334C55.2112 2.53351 55.2112 2.53363 55.2112 2.53375C55.2112 2.53387 55.2112 2.53398 55.2112 2.5341C55.2112 2.53422 55.2112 2.53434 55.2112 2.53445C55.2112 2.53457 55.2112 2.53469 55.2112 2.5348C55.2112 2.53492 55.2112 2.53504 55.2112 2.53516C55.2112 2.53527 55.2112 2.53539 55.2112 2.53551C55.2112 2.53562 55.2112 2.53574 55.2112 2.53586C55.2112 2.53598 55.2112 2.53609 55.2112 2.53621C55.2112 2.53633 55.2112 2.53644 55.2112 2.53656C55.2112 2.53668 55.2112 2.5368 55.2112 2.53691C55.2112 2.53703 55.2112 2.53715 55.2112 2.53726C55.2112 2.53738 55.2112 2.5375 55.2112 2.53762C55.2112 2.53773 55.2112 2.53785 55.2112 2.53797C55.2112 2.53808 55.2112 2.5382 55.2112 2.53832C55.2112 2.53844 55.2112 2.53855 55.2112 2.53867C55.2112 2.53879 55.2112 2.53891 55.2112 2.53902C55.2112 2.53914 55.2112 2.53926 55.2112 2.53937C55.2112 2.53949 55.2112 2.53961 55.2112 2.53973C55.2112 2.53984 55.2112 2.53996 55.2112 2.54008C55.2112 2.54019 55.2112 2.54031 55.2112 2.54043C55.2112 2.54055 55.2112 2.54066 55.2112 2.54078C55.2112 2.5409 55.2112 2.54101 55.2112 2.54113C55.2112 2.54125 55.2112 2.54137 55.2112 2.54148C55.2112 2.5416 55.2112 2.54172 55.2112 2.54183C55.2112 2.54195 55.2112 2.54207 55.2112 2.54219C55.2112 2.5423 55.2112 2.54242 55.2112 2.54254C55.2112 2.54266 55.2112 2.54277 55.2112 2.54289C55.2112 2.54301 55.2112 2.54312 55.2112 2.54324C55.2112 2.54336 55.2112 2.54348 55.2112 2.54359C55.2112 2.54371 55.2112 2.54383 55.2112 2.54394C55.2112 2.54406 55.2112 2.54418 55.2112 2.5443C55.2112 2.54441 55.2112 2.54453 55.2112 2.54465C55.2112 2.54476 55.2112 2.54488 55.2112 2.545C55.2112 2.54512 55.2112 2.54523 55.2112 2.54535C55.2112 2.54547 55.2112 2.54559 55.2112 2.5457C55.2112 2.54582 55.2112 2.54594 55.2112 2.54605C55.2112 2.54617 55.2112 2.54629 55.2112 2.54641C55.2112 2.54652 55.2112 2.54664 55.2112 2.54676C55.2112 2.54687 55.2112 2.54699 55.2112 2.54711C55.2112 2.54723 55.2112 2.54734 55.2112 2.54746C55.2112 2.54758 55.2112 2.54769 55.2112 2.54781C55.2112 2.54793 55.2112 2.54805 55.2112 2.54816C55.2112 2.54828 55.2112 2.5484 55.2112 2.54852C55.2112 2.54863 55.2112 2.54875 55.2112 2.54887C55.2112 2.54898 55.2112 2.5491 55.2112 2.54922C55.2112 2.54934 55.2112 2.54945 55.2112 2.54957C55.2112 2.54969 55.2112 2.5498 55.2112 2.54992C55.2112 2.55004 55.2112 2.55016 55.2112 2.55027C55.2112 2.55039 55.2112 2.55051 55.2112 2.55062C55.2112 2.55074 55.2112 2.55086 55.2112 2.55098C55.2112 2.55109 55.2112 2.55121 55.2112 2.55133C55.2112 2.55145 55.2112 2.55156 55.2112 2.55168C55.2112 2.5518 55.2112 2.55191 55.2112 2.55203C55.2112 2.55215 55.2112 2.55227 55.2112 2.55238C55.2112 2.5525 55.2112 2.55262 55.2112 2.55273C55.2112 2.55285 55.2112 2.55297 55.2112 2.55309C55.2112 2.5532 55.2112 2.55332 55.2112 2.55344C55.2112 2.55355 55.2112 2.55367 55.2112 2.55379C55.2112 2.55391 55.2112 2.55402 55.2112 2.55414C55.2112 2.55426 55.2112 2.55437 55.2112 2.55449C55.2112 2.55461 55.2112 2.55473 55.2112 2.55484C55.2112 2.55496 55.2112 2.55508 55.2112 2.55519C55.2112 2.55531 55.2112 2.55543 55.2112 2.55555C55.2112 2.55566 55.2112 2.55578 55.2112 2.5559C55.2112 2.55602 55.2112 2.55613 55.2112 2.55625C55.2112 2.55637 55.2112 2.55648 55.2112 2.5566C55.2112 2.55672 55.2112 2.55684 55.2112 2.55695C55.2112 2.55707 55.2112 2.55719 55.2112 2.5573C55.2112 2.55742 55.2112 2.55754 55.2112 2.55766C55.2112 2.55777 55.2112 2.55789 55.2112 2.55801C55.2112 2.55812 55.2112 2.55824 55.2112 2.55836C55.2112 2.55848 55.2112 2.55859 55.2112 2.55871C55.2112 2.55883 55.2112 2.55894 55.2112 2.55906C55.2112 2.55918 55.2112 2.5593 55.2112 2.55941C55.2112 2.55953 55.2112 2.55965 55.2112 2.55976C55.2112 2.55988 55.2112 2.56 55.2112 2.56012C55.2112 2.56023 55.2112 2.56035 55.2112 2.56047C55.2112 2.56059 55.2112 2.5607 55.2112 2.56082C55.2112 2.56094 55.2112 2.56105 55.2112 2.56117C55.2112 2.56129 55.2112 2.56141 55.2112 2.56152C55.2112 2.56164 55.2112 2.56176 55.2112 2.56187C55.2112 2.56199 55.2112 2.56211 55.2112 2.56223C55.2112 2.56234 55.2112 2.56246 55.2112 2.56258C55.2112 2.56269 55.2112 2.56281 55.2112 2.56293C55.2112 2.56305 55.2112 2.56316 55.2112 2.56328C55.2112 2.5634 55.2112 2.56351 55.2112 2.56363C55.2112 2.56375 55.2112 2.56387 55.2112 2.56398C55.2112 2.5641 55.2112 2.56422 55.2112 2.56433C55.2112 2.56445 55.2112 2.56457 55.2112 2.56469C55.2112 2.5648 55.2112 2.56492 55.2112 2.56504C55.2112 2.56516 55.2112 2.56527 55.2112 2.56539C55.2112 2.56551 55.2112 2.56562 55.2112 2.56574C55.2112 2.56586 55.2112 2.56598 55.2112 2.56609C55.2112 2.56621 55.2112 2.56633 55.2112 2.56644C55.2112 2.56656 55.2112 2.56668 55.2112 2.5668C55.2112 2.56691 55.2112 2.56703 55.2112 2.56715C55.2112 2.56726 55.2112 2.56738 55.2112 2.5675C55.2112 2.56762 55.2112 2.56773 55.2112 2.56785C55.2112 2.56797 55.2112 2.56809 55.2112 2.5682C55.2112 2.56832 55.2112 2.56844 55.2112 2.56855C55.2112 2.56867 55.2112 2.56879 55.2112 2.56891C55.2112 2.56902 55.2112 2.56914 55.2112 2.56926C55.2112 2.56937 55.2112 2.56949 55.2112 2.56961C55.2112 2.56973 55.2112 2.56984 55.2112 2.56996C55.2112 2.57008 55.2112 2.5702 55.2112 2.57031C55.2112 2.57043 55.2112 2.57055 55.2112 2.57066C55.2112 2.57078 55.2112 2.5709 55.2112 2.57102C55.2112 2.57113 55.2112 2.57125 55.2112 2.57137C55.2112 2.57148 55.2112 2.5716 55.2112 2.57172C55.2112 2.57184 55.2112 2.57195 55.2112 2.57207C55.2112 2.57219 55.2112 2.5723 55.2112 2.57242C55.2112 2.57254 55.2112 2.57266 55.2112 2.57277C55.2112 2.57289 55.2112 2.57301 55.2112 2.57312C55.2112 2.57324 55.2112 2.57336 55.2112 2.57348C55.2112 2.57359 55.2112 2.57371 55.2112 2.57383C55.2112 2.57395 55.2112 2.57406 55.2112 2.57418C55.2112 2.5743 55.2112 2.57441 55.2112 2.57453C55.2112 2.57465 55.2112 2.57477 55.2112 2.57488C55.2112 2.575 55.2112 2.57512 55.2112 2.57523C55.2112 2.57535 55.2112 2.57547 55.2112 2.57559C55.2112 2.5757 55.2112 2.57582 55.2112 2.57594C55.2112 2.57605 55.2112 2.57617 55.2112 2.57629C55.2112 2.57641 55.2112 2.57652 55.2112 2.57664C55.2112 2.57676 55.2112 2.57687 55.2112 2.57699C55.2112 2.57711 55.2112 2.57723 55.2112 2.57734C55.2112 2.57746 55.2112 2.57758 55.2112 2.57769C55.2112 2.57781 55.2112 2.57793 55.2112 2.57805C55.2112 2.57816 55.2112 2.57828 55.2112 2.5784C55.2112 2.57852 55.2112 2.57863 55.2112 2.57875C55.2112 2.57887 55.2112 2.57898 55.2112 2.5791C55.2112 2.57922 55.2112 2.57934 55.2112 2.57945C55.2112 2.57957 55.2112 2.57969 55.2112 2.5798C55.2112 2.57992 55.2112 2.58004 55.2112 2.58016C55.2112 2.58027 55.2112 2.58039 55.2112 2.58051C55.2112 2.58062 55.2112 2.58074 55.2112 2.58086C55.2112 2.58098 55.2112 2.58109 55.2112 2.58121C55.2112 2.58133 55.2112 2.58144 55.2112 2.58156C55.2112 2.58168 55.2112 2.5818 55.2112 2.58191C55.2112 2.58203 55.2112 2.58215 55.2112 2.58226C55.2112 2.58238 55.2112 2.5825 55.2112 2.58262C55.2112 2.58273 55.2112 2.58285 55.2112 2.58297C55.2112 2.58309 55.2112 2.5832 55.2112 2.58332C55.2112 2.58344 55.2112 2.58355 55.2112 2.58367C55.2112 2.58379 55.2112 2.58391 55.2112 2.58402C55.2112 2.58414 55.2112 2.58426 55.2112 2.58437C55.2112 2.58449 55.2112 2.58461 55.2112 2.58473C55.2112 2.58484 55.2112 2.58496 55.2112 2.58508C55.2112 2.58519 55.2112 2.58531 55.2112 2.58543C55.2112 2.58555 55.2112 2.58566 55.2112 2.58578C55.2112 2.5859 55.2112 2.58601 55.2112 2.58613C55.2112 2.58625 55.2112 2.58637 55.2112 2.58648C55.2112 2.5866 55.2112 2.58672 55.2112 2.58684C55.2112 2.58695 55.2112 2.58707 55.2112 2.58719C55.2112 2.5873 55.2112 2.58742 55.2112 2.58754C55.2112 2.58766 55.2112 2.58777 55.2112 2.58789C55.2112 2.58801 55.2112 2.58812 55.2112 2.58824C55.2112 2.58836 55.2112 2.58848 55.2112 2.58859C55.2112 2.58871 55.2112 2.58883 55.2112 2.58894C55.2112 2.58906 55.2112 2.58918 55.2112 2.5893C55.2112 2.58941 55.2112 2.58953 55.2112 2.58965C55.2112 2.58977 55.2112 2.58988 55.2112 2.59H59.2112C59.2112 2.58988 59.2112 2.58977 59.2112 2.58965C59.2112 2.58953 59.2112 2.58941 59.2112 2.5893C59.2112 2.58918 59.2112 2.58906 59.2112 2.58894C59.2112 2.58883 59.2112 2.58871 59.2112 2.58859C59.2112 2.58848 59.2112 2.58836 59.2112 2.58824C59.2112 2.58812 59.2112 2.58801 59.2112 2.58789C59.2112 2.58777 59.2112 2.58766 59.2112 2.58754C59.2112 2.58742 59.2112 2.5873 59.2112 2.58719C59.2112 2.58707 59.2112 2.58695 59.2112 2.58684C59.2112 2.58672 59.2112 2.5866 59.2112 2.58648C59.2112 2.58637 59.2112 2.58625 59.2112 2.58613C59.2112 2.58601 59.2112 2.5859 59.2112 2.58578C59.2112 2.58566 59.2112 2.58555 59.2112 2.58543C59.2112 2.58531 59.2112 2.58519 59.2112 2.58508C59.2112 2.58496 59.2112 2.58484 59.2112 2.58473C59.2112 2.58461 59.2112 2.58449 59.2112 2.58437C59.2112 2.58426 59.2112 2.58414 59.2112 2.58402C59.2112 2.58391 59.2112 2.58379 59.2112 2.58367C59.2112 2.58355 59.2112 2.58344 59.2112 2.58332C59.2112 2.5832 59.2112 2.58309 59.2112 2.58297C59.2112 2.58285 59.2112 2.58273 59.2112 2.58262C59.2112 2.5825 59.2112 2.58238 59.2112 2.58226C59.2112 2.58215 59.2112 2.58203 59.2112 2.58191C59.2112 2.5818 59.2112 2.58168 59.2112 2.58156C59.2112 2.58144 59.2112 2.58133 59.2112 2.58121C59.2112 2.58109 59.2112 2.58098 59.2112 2.58086C59.2112 2.58074 59.2112 2.58062 59.2112 2.58051C59.2112 2.58039 59.2112 2.58027 59.2112 2.58016C59.2112 2.58004 59.2112 2.57992 59.2112 2.5798C59.2112 2.57969 59.2112 2.57957 59.2112 2.57945C59.2112 2.57934 59.2112 2.57922 59.2112 2.5791C59.2112 2.57898 59.2112 2.57887 59.2112 2.57875C59.2112 2.57863 59.2112 2.57852 59.2112 2.5784C59.2112 2.57828 59.2112 2.57816 59.2112 2.57805C59.2112 2.57793 59.2112 2.57781 59.2112 2.57769C59.2112 2.57758 59.2112 2.57746 59.2112 2.57734C59.2112 2.57723 59.2112 2.57711 59.2112 2.57699C59.2112 2.57687 59.2112 2.57676 59.2112 2.57664C59.2112 2.57652 59.2112 2.57641 59.2112 2.57629C59.2112 2.57617 59.2112 2.57605 59.2112 2.57594C59.2112 2.57582 59.2112 2.5757 59.2112 2.57559C59.2112 2.57547 59.2112 2.57535 59.2112 2.57523C59.2112 2.57512 59.2112 2.575 59.2112 2.57488C59.2112 2.57477 59.2112 2.57465 59.2112 2.57453C59.2112 2.57441 59.2112 2.5743 59.2112 2.57418C59.2112 2.57406 59.2112 2.57395 59.2112 2.57383C59.2112 2.57371 59.2112 2.57359 59.2112 2.57348C59.2112 2.57336 59.2112 2.57324 59.2112 2.57312C59.2112 2.57301 59.2112 2.57289 59.2112 2.57277C59.2112 2.57266 59.2112 2.57254 59.2112 2.57242C59.2112 2.5723 59.2112 2.57219 59.2112 2.57207C59.2112 2.57195 59.2112 2.57184 59.2112 2.57172C59.2112 2.5716 59.2112 2.57148 59.2112 2.57137C59.2112 2.57125 59.2112 2.57113 59.2112 2.57102C59.2112 2.5709 59.2112 2.57078 59.2112 2.57066C59.2112 2.57055 59.2112 2.57043 59.2112 2.57031C59.2112 2.5702 59.2112 2.57008 59.2112 2.56996C59.2112 2.56984 59.2112 2.56973 59.2112 2.56961C59.2112 2.56949 59.2112 2.56937 59.2112 2.56926C59.2112 2.56914 59.2112 2.56902 59.2112 2.56891C59.2112 2.56879 59.2112 2.56867 59.2112 2.56855C59.2112 2.56844 59.2112 2.56832 59.2112 2.5682C59.2112 2.56809 59.2112 2.56797 59.2112 2.56785C59.2112 2.56773 59.2112 2.56762 59.2112 2.5675C59.2112 2.56738 59.2112 2.56726 59.2112 2.56715C59.2112 2.56703 59.2112 2.56691 59.2112 2.5668C59.2112 2.56668 59.2112 2.56656 59.2112 2.56644C59.2112 2.56633 59.2112 2.56621 59.2112 2.56609C59.2112 2.56598 59.2112 2.56586 59.2112 2.56574C59.2112 2.56562 59.2112 2.56551 59.2112 2.56539C59.2112 2.56527 59.2112 2.56516 59.2112 2.56504C59.2112 2.56492 59.2112 2.5648 59.2112 2.56469C59.2112 2.56457 59.2112 2.56445 59.2112 2.56433C59.2112 2.56422 59.2112 2.5641 59.2112 2.56398C59.2112 2.56387 59.2112 2.56375 59.2112 2.56363C59.2112 2.56351 59.2112 2.5634 59.2112 2.56328C59.2112 2.56316 59.2112 2.56305 59.2112 2.56293C59.2112 2.56281 59.2112 2.56269 59.2112 2.56258C59.2112 2.56246 59.2112 2.56234 59.2112 2.56223C59.2112 2.56211 59.2112 2.56199 59.2112 2.56187C59.2112 2.56176 59.2112 2.56164 59.2112 2.56152C59.2112 2.56141 59.2112 2.56129 59.2112 2.56117C59.2112 2.56105 59.2112 2.56094 59.2112 2.56082C59.2112 2.5607 59.2112 2.56059 59.2112 2.56047C59.2112 2.56035 59.2112 2.56023 59.2112 2.56012C59.2112 2.56 59.2112 2.55988 59.2112 2.55976C59.2112 2.55965 59.2112 2.55953 59.2112 2.55941C59.2112 2.5593 59.2112 2.55918 59.2112 2.55906C59.2112 2.55894 59.2112 2.55883 59.2112 2.55871C59.2112 2.55859 59.2112 2.55848 59.2112 2.55836C59.2112 2.55824 59.2112 2.55812 59.2112 2.55801C59.2112 2.55789 59.2112 2.55777 59.2112 2.55766C59.2112 2.55754 59.2112 2.55742 59.2112 2.5573C59.2112 2.55719 59.2112 2.55707 59.2112 2.55695C59.2112 2.55684 59.2112 2.55672 59.2112 2.5566C59.2112 2.55648 59.2112 2.55637 59.2112 2.55625C59.2112 2.55613 59.2112 2.55602 59.2112 2.5559C59.2112 2.55578 59.2112 2.55566 59.2112 2.55555C59.2112 2.55543 59.2112 2.55531 59.2112 2.55519C59.2112 2.55508 59.2112 2.55496 59.2112 2.55484C59.2112 2.55473 59.2112 2.55461 59.2112 2.55449C59.2112 2.55437 59.2112 2.55426 59.2112 2.55414C59.2112 2.55402 59.2112 2.55391 59.2112 2.55379C59.2112 2.55367 59.2112 2.55355 59.2112 2.55344C59.2112 2.55332 59.2112 2.5532 59.2112 2.55309C59.2112 2.55297 59.2112 2.55285 59.2112 2.55273C59.2112 2.55262 59.2112 2.5525 59.2112 2.55238C59.2112 2.55227 59.2112 2.55215 59.2112 2.55203C59.2112 2.55191 59.2112 2.5518 59.2112 2.55168C59.2112 2.55156 59.2112 2.55145 59.2112 2.55133C59.2112 2.55121 59.2112 2.55109 59.2112 2.55098C59.2112 2.55086 59.2112 2.55074 59.2112 2.55062C59.2112 2.55051 59.2112 2.55039 59.2112 2.55027C59.2112 2.55016 59.2112 2.55004 59.2112 2.54992C59.2112 2.5498 59.2112 2.54969 59.2112 2.54957C59.2112 2.54945 59.2112 2.54934 59.2112 2.54922C59.2112 2.5491 59.2112 2.54898 59.2112 2.54887C59.2112 2.54875 59.2112 2.54863 59.2112 2.54852C59.2112 2.5484 59.2112 2.54828 59.2112 2.54816C59.2112 2.54805 59.2112 2.54793 59.2112 2.54781C59.2112 2.54769 59.2112 2.54758 59.2112 2.54746C59.2112 2.54734 59.2112 2.54723 59.2112 2.54711C59.2112 2.54699 59.2112 2.54687 59.2112 2.54676C59.2112 2.54664 59.2112 2.54652 59.2112 2.54641C59.2112 2.54629 59.2112 2.54617 59.2112 2.54605C59.2112 2.54594 59.2112 2.54582 59.2112 2.5457C59.2112 2.54559 59.2112 2.54547 59.2112 2.54535C59.2112 2.54523 59.2112 2.54512 59.2112 2.545C59.2112 2.54488 59.2112 2.54476 59.2112 2.54465C59.2112 2.54453 59.2112 2.54441 59.2112 2.5443C59.2112 2.54418 59.2112 2.54406 59.2112 2.54394C59.2112 2.54383 59.2112 2.54371 59.2112 2.54359C59.2112 2.54348 59.2112 2.54336 59.2112 2.54324C59.2112 2.54312 59.2112 2.54301 59.2112 2.54289C59.2112 2.54277 59.2112 2.54266 59.2112 2.54254C59.2112 2.54242 59.2112 2.5423 59.2112 2.54219C59.2112 2.54207 59.2112 2.54195 59.2112 2.54183C59.2112 2.54172 59.2112 2.5416 59.2112 2.54148C59.2112 2.54137 59.2112 2.54125 59.2112 2.54113C59.2112 2.54101 59.2112 2.5409 59.2112 2.54078C59.2112 2.54066 59.2112 2.54055 59.2112 2.54043C59.2112 2.54031 59.2112 2.54019 59.2112 2.54008C59.2112 2.53996 59.2112 2.53984 59.2112 2.53973C59.2112 2.53961 59.2112 2.53949 59.2112 2.53937C59.2112 2.53926 59.2112 2.53914 59.2112 2.53902C59.2112 2.53891 59.2112 2.53879 59.2112 2.53867C59.2112 2.53855 59.2112 2.53844 59.2112 2.53832C59.2112 2.5382 59.2112 2.53808 59.2112 2.53797C59.2112 2.53785 59.2112 2.53773 59.2112 2.53762C59.2112 2.5375 59.2112 2.53738 59.2112 2.53726C59.2112 2.53715 59.2112 2.53703 59.2112 2.53691C59.2112 2.5368 59.2112 2.53668 59.2112 2.53656C59.2112 2.53644 59.2112 2.53633 59.2112 2.53621C59.2112 2.53609 59.2112 2.53598 59.2112 2.53586C59.2112 2.53574 59.2112 2.53562 59.2112 2.53551C59.2112 2.53539 59.2112 2.53527 59.2112 2.53516C59.2112 2.53504 59.2112 2.53492 59.2112 2.5348C59.2112 2.53469 59.2112 2.53457 59.2112 2.53445C59.2112 2.53434 59.2112 2.53422 59.2112 2.5341C59.2112 2.53398 59.2112 2.53387 59.2112 2.53375C59.2112 2.53363 59.2112 2.53351 59.2112 2.5334C59.2112 2.53328 59.2112 2.53316 59.2112 2.53305C59.2112 2.53293 59.2112 2.53281 59.2112 2.53269C59.2112 2.53258 59.2112 2.53246 59.2112 2.53234C59.2112 2.53223 59.2112 2.53211 59.2112 2.53199C59.2112 2.53187 59.2112 2.53176 59.2112 2.53164C59.2112 2.53152 59.2112 2.53141 59.2112 2.53129C59.2112 2.53117 59.2112 2.53105 59.2112 2.53094C59.2112 2.53082 59.2112 2.5307 59.2112 2.53059C59.2112 2.53047 59.2112 2.53035 59.2112 2.53023C59.2112 2.53012 59.2112 2.53 59.2112 2.52988C59.2112 2.52977 59.2112 2.52965 59.2112 2.52953C59.2112 2.52941 59.2112 2.5293 59.2112 2.52918C59.2112 2.52906 59.2112 2.52894 59.2112 2.52883C59.2112 2.52871 59.2112 2.52859 59.2112 2.52848C59.2112 2.52836 59.2112 2.52824 59.2112 2.52812C59.2112 2.52801 59.2112 2.52789 59.2112 2.52777C59.2112 2.52766 59.2112 2.52754 59.2112 2.52742C59.2112 2.5273 59.2112 2.52719 59.2112 2.52707C59.2112 2.52695 59.2112 2.52684 59.2112 2.52672C59.2112 2.5266 59.2112 2.52648 59.2112 2.52637C59.2112 2.52625 59.2112 2.52613 59.2112 2.52601C59.2112 2.5259 59.2112 2.52578 59.2112 2.52566C59.2112 2.52555 59.2112 2.52543 59.2112 2.52531C59.2112 2.52519 59.2112 2.52508 59.2112 2.52496C59.2112 2.52484 59.2112 2.52473 59.2112 2.52461C59.2112 2.52449 59.2112 2.52437 59.2112 2.52426C59.2112 2.52414 59.2112 2.52402 59.2112 2.52391C59.2112 2.52379 59.2112 2.52367 59.2112 2.52355C59.2112 2.52344 59.2112 2.52332 59.2112 2.5232C59.2112 2.52308 59.2112 2.52297 59.2112 2.52285C59.2112 2.52273 59.2112 2.52262 59.2112 2.5225C59.2112 2.52238 59.2112 2.52226 59.2112 2.52215C59.2112 2.52203 59.2112 2.52191 59.2112 2.5218C59.2112 2.52168 59.2112 2.52156 59.2112 2.52144C59.2112 2.52133 59.2112 2.52121 59.2112 2.52109C59.2112 2.52098 59.2112 2.52086 59.2112 2.52074C59.2112 2.52062 59.2112 2.52051 59.2112 2.52039C59.2112 2.52027 59.2112 2.52015 59.2112 2.52004C59.2112 2.51992 59.2112 2.5198 59.2112 2.51969C59.2112 2.51957 59.2112 2.51945 59.2112 2.51933C59.2112 2.51922 59.2112 2.5191 59.2112 2.51898C59.2112 2.51887 59.2112 2.51875 59.2112 2.51863C59.2112 2.51851 59.2112 2.5184 59.2112 2.51828C59.2112 2.51816 59.2112 2.51805 59.2112 2.51793C59.2112 2.51781 59.2112 2.51769 59.2112 2.51758C59.2112 2.51746 59.2112 2.51734 59.2112 2.51723C59.2112 2.51711 59.2112 2.51699 59.2112 2.51687C59.2112 2.51676 59.2112 2.51664 59.2112 2.51652C59.2112 2.51641 59.2112 2.51629 59.2112 2.51617C59.2112 2.51605 59.2112 2.51594 59.2112 2.51582C59.2112 2.5157 59.2112 2.51558 59.2112 2.51547C59.2112 2.51535 59.2112 2.51523 59.2112 2.51512C59.2112 2.515 59.2112 2.51488 59.2112 2.51476C59.2112 2.51465 59.2112 2.51453 59.2112 2.51441C59.2112 2.5143 59.2112 2.51418 59.2112 2.51406C59.2112 2.51394 59.2112 2.51383 59.2112 2.51371C59.2112 2.51359 59.2112 2.51348 59.2112 2.51336C59.2112 2.51324 59.2112 2.51312 59.2112 2.51301C59.2112 2.51289 59.2112 2.51277 59.2112 2.51266C59.2112 2.51254 59.2112 2.51242 59.2112 2.5123C59.2112 2.51219 59.2112 2.51207 59.2112 2.51195C59.2112 2.51184 59.2112 2.51172 59.2112 2.5116C59.2112 2.51148 59.2112 2.51137 59.2112 2.51125C59.2112 2.51113 59.2112 2.51101 59.2112 2.5109C59.2112 2.51078 59.2112 2.51066 59.2112 2.51055C59.2112 2.51043 59.2112 2.51031 59.2112 2.51019C59.2112 2.51008 59.2112 2.50996 59.2112 2.50984C59.2112 2.50973 59.2112 2.50961 59.2112 2.50949C59.2112 2.50937 59.2112 2.50926 59.2112 2.50914C59.2112 2.50902 59.2112 2.50891 59.2112 2.50879C59.2112 2.50867 59.2112 2.50855 59.2112 2.50844C59.2112 2.50832 59.2112 2.5082 59.2112 2.50809C59.2112 2.50797 59.2112 2.50785 59.2112 2.50773C59.2112 2.50762 59.2112 2.5075 59.2112 2.50738C59.2112 2.50726 59.2112 2.50715 59.2112 2.50703C59.2112 2.50691 59.2112 2.5068 59.2112 2.50668C59.2112 2.50656 59.2112 2.50644 59.2112 2.50633C59.2112 2.50621 59.2112 2.50609 59.2112 2.50598C59.2112 2.50586 59.2112 2.50574 59.2112 2.50562C59.2112 2.50551 59.2112 2.50539 59.2112 2.50527C59.2112 2.50516 59.2112 2.50504 59.2112 2.50492C59.2112 2.5048 59.2112 2.50469 59.2112 2.50457C59.2112 2.50445 59.2112 2.50433 59.2112 2.50422C59.2112 2.5041 59.2112 2.50398 59.2112 2.50387C59.2112 2.50375 59.2112 2.50363 59.2112 2.50351C59.2112 2.5034 59.2112 2.50328 59.2112 2.50316C59.2112 2.50305 59.2112 2.50293 59.2112 2.50281C59.2112 2.50269 59.2112 2.50258 59.2112 2.50246C59.2112 2.50234 59.2112 2.50223 59.2112 2.50211C59.2112 2.50199 59.2112 2.50187 59.2112 2.50176C59.2112 2.50164 59.2112 2.50152 59.2112 2.5014C59.2112 2.50129 59.2112 2.50117 59.2112 2.50105C59.2112 2.50094 59.2112 2.50082 59.2112 2.5007C59.2112 2.50058 59.2112 2.50047 59.2112 2.50035C59.2112 2.50023 59.2112 2.50012 59.2112 2.5C59.2112 2.49988 59.2112 2.49976 59.2112 2.49965C59.2112 2.49953 59.2112 2.49941 59.2112 2.4993C59.2112 2.49918 59.2112 2.49906 59.2112 2.49894C59.2112 2.49883 59.2112 2.49871 59.2112 2.49859C59.2112 2.49848 59.2112 2.49836 59.2112 2.49824C59.2112 2.49812 59.2112 2.49801 59.2112 2.49789C59.2112 2.49777 59.2112 2.49765 59.2112 2.49754C59.2112 2.49742 59.2112 2.4973 59.2112 2.49719C59.2112 2.49707 59.2112 2.49695 59.2112 2.49683C59.2112 2.49672 59.2112 2.4966 59.2112 2.49648C59.2112 2.49637 59.2112 2.49625 59.2112 2.49613C59.2112 2.49601 59.2112 2.4959 59.2112 2.49578C59.2112 2.49566 59.2112 2.49555 59.2112 2.49543C59.2112 2.49531 59.2112 2.49519 59.2112 2.49508C59.2112 2.49496 59.2112 2.49484 59.2112 2.49473C59.2112 2.49461 59.2112 2.49449 59.2112 2.49437C59.2112 2.49426 59.2112 2.49414 59.2112 2.49402C59.2112 2.49391 59.2112 2.49379 59.2112 2.49367C59.2112 2.49355 59.2112 2.49344 59.2112 2.49332C59.2112 2.4932 59.2112 2.49308 59.2112 2.49297C59.2112 2.49285 59.2112 2.49273 59.2112 2.49262C59.2112 2.4925 59.2112 2.49238 59.2112 2.49226C59.2112 2.49215 59.2112 2.49203 59.2112 2.49191C59.2112 2.4918 59.2112 2.49168 59.2112 2.49156C59.2112 2.49144 59.2112 2.49133 59.2112 2.49121C59.2112 2.49109 59.2112 2.49098 59.2112 2.49086C59.2112 2.49074 59.2112 2.49062 59.2112 2.49051C59.2112 2.49039 59.2112 2.49027 59.2112 2.49016C59.2112 2.49004 59.2112 2.48992 59.2112 2.4898C59.2112 2.48969 59.2112 2.48957 59.2112 2.48945C59.2112 2.48934 59.2112 2.48922 59.2112 2.4891C59.2112 2.48898 59.2112 2.48887 59.2112 2.48875C59.2112 2.48863 59.2112 2.48851 59.2112 2.4884C59.2112 2.48828 59.2112 2.48816 59.2112 2.48805C59.2112 2.48793 59.2112 2.48781 59.2112 2.48769C59.2112 2.48758 59.2112 2.48746 59.2112 2.48734C59.2112 2.48723 59.2112 2.48711 59.2112 2.48699C59.2112 2.48687 59.2112 2.48676 59.2112 2.48664C59.2112 2.48652 59.2112 2.48641 59.2112 2.48629C59.2112 2.48617 59.2112 2.48605 59.2112 2.48594C59.2112 2.48582 59.2112 2.4857 59.2112 2.48559C59.2112 2.48547 59.2112 2.48535 59.2112 2.48523C59.2112 2.48512 59.2112 2.485 59.2112 2.48488C59.2112 2.48476 59.2112 2.48465 59.2112 2.48453C59.2112 2.48441 59.2112 2.4843 59.2112 2.48418C59.2112 2.48406 59.2112 2.48394 59.2112 2.48383C59.2112 2.48371 59.2112 2.48359 59.2112 2.48348C59.2112 2.48336 59.2112 2.48324 59.2112 2.48312C59.2112 2.48301 59.2112 2.48289 59.2112 2.48277C59.2112 2.48266 59.2112 2.48254 59.2112 2.48242C59.2112 2.4823 59.2112 2.48219 59.2112 2.48207C59.2112 2.48195 59.2112 2.48183 59.2112 2.48172C59.2112 2.4816 59.2112 2.48148 59.2112 2.48137C59.2112 2.48125 59.2112 2.48113 59.2112 2.48101C59.2112 2.4809 59.2112 2.48078 59.2112 2.48066C59.2112 2.48055 59.2112 2.48043 59.2112 2.48031C59.2112 2.48019 59.2112 2.48008 59.2112 2.47996C59.2112 2.47984 59.2112 2.47972 59.2112 2.47961C59.2112 2.47949 59.2112 2.47937 59.2112 2.47926C59.2112 2.47914 59.2112 2.47902 59.2112 2.4789C59.2112 2.47879 59.2112 2.47867 59.2112 2.47855C59.2112 2.47844 59.2112 2.47832 59.2112 2.4782C59.2112 2.47808 59.2112 2.47797 59.2112 2.47785C59.2112 2.47773 59.2112 2.47762 59.2112 2.4775C59.2112 2.47738 59.2112 2.47726 59.2112 2.47715C59.2112 2.47703 59.2112 2.47691 59.2112 2.4768C59.2112 2.47668 59.2112 2.47656 59.2112 2.47644C59.2112 2.47633 59.2112 2.47621 59.2112 2.47609C59.2112 2.47598 59.2112 2.47586 59.2112 2.47574C59.2112 2.47562 59.2112 2.47551 59.2112 2.47539C59.2112 2.47527 59.2112 2.47515 59.2112 2.47504C59.2112 2.47492 59.2112 2.4748 59.2112 2.47469C59.2112 2.47457 59.2112 2.47445 59.2112 2.47433C59.2112 2.47422 59.2112 2.4741 59.2112 2.47398C59.2112 2.47387 59.2112 2.47375 59.2112 2.47363C59.2112 2.47351 59.2112 2.4734 59.2112 2.47328C59.2112 2.47316 59.2112 2.47305 59.2112 2.47293C59.2112 2.47281 59.2112 2.47269 59.2112 2.47258C59.2112 2.47246 59.2112 2.47234 59.2112 2.47223C59.2112 2.47211 59.2112 2.47199 59.2112 2.47187C59.2112 2.47176 59.2112 2.47164 59.2112 2.47152C59.2112 2.47141 59.2112 2.47129 59.2112 2.47117C59.2112 2.47105 59.2112 2.47094 59.2112 2.47082C59.2112 2.4707 59.2112 2.47058 59.2112 2.47047C59.2112 2.47035 59.2112 2.47023 59.2112 2.47012C59.2112 2.47 59.2112 2.46988 59.2112 2.46976C59.2112 2.46965 59.2112 2.46953 59.2112 2.46941C59.2112 2.4693 59.2112 2.46918 59.2112 2.46906C59.2112 2.46894 59.2112 2.46883 59.2112 2.46871C59.2112 2.46859 59.2112 2.46848 59.2112 2.46836C59.2112 2.46824 59.2112 2.46812 59.2112 2.46801C59.2112 2.46789 59.2112 2.46777 59.2112 2.46766C59.2112 2.46754 59.2112 2.46742 59.2112 2.4673C59.2112 2.46719 59.2112 2.46707 59.2112 2.46695C59.2112 2.46684 59.2112 2.46672 59.2112 2.4666C59.2112 2.46648 59.2112 2.46637 59.2112 2.46625C59.2112 2.46613 59.2112 2.46601 59.2112 2.4659C59.2112 2.46578 59.2112 2.46566 59.2112 2.46555C59.2112 2.46543 59.2112 2.46531 59.2112 2.46519C59.2112 2.46508 59.2112 2.46496 59.2112 2.46484C59.2112 2.46473 59.2112 2.46461 59.2112 2.46449C59.2112 2.46437 59.2112 2.46426 59.2112 2.46414C59.2112 2.46402 59.2112 2.46391 59.2112 2.46379C59.2112 2.46367 59.2112 2.46355 59.2112 2.46344C59.2112 2.46332 59.2112 2.4632 59.2112 2.46308C59.2112 2.46297 59.2112 2.46285 59.2112 2.46273C59.2112 2.46262 59.2112 2.4625 59.2112 2.46238C59.2112 2.46226 59.2112 2.46215 59.2112 2.46203C59.2112 2.46191 59.2112 2.4618 59.2112 2.46168C59.2112 2.46156 59.2112 2.46144 59.2112 2.46133C59.2112 2.46121 59.2112 2.46109 59.2112 2.46098C59.2112 2.46086 59.2112 2.46074 59.2112 2.46062C59.2112 2.46051 59.2112 2.46039 59.2112 2.46027C59.2112 2.46015 59.2112 2.46004 59.2112 2.45992C59.2112 2.4598 59.2112 2.45969 59.2112 2.45957C59.2112 2.45945 59.2112 2.45933 59.2112 2.45922C59.2112 2.4591 59.2112 2.45898 59.2112 2.45887C59.2112 2.45875 59.2112 2.45863 59.2112 2.45851C59.2112 2.4584 59.2112 2.45828 59.2112 2.45816C59.2112 2.45805 59.2112 2.45793 59.2112 2.45781C59.2112 2.45769 59.2112 2.45758 59.2112 2.45746C59.2112 2.45734 59.2112 2.45722 59.2112 2.45711C59.2112 2.45699 59.2112 2.45687 59.2112 2.45676C59.2112 2.45664 59.2112 2.45652 59.2112 2.4564C59.2112 2.45629 59.2112 2.45617 59.2112 2.45605C59.2112 2.45594 59.2112 2.45582 59.2112 2.4557C59.2112 2.45558 59.2112 2.45547 59.2112 2.45535C59.2112 2.45523 59.2112 2.45512 59.2112 2.455C59.2112 2.45488 59.2112 2.45476 59.2112 2.45465C59.2112 2.45453 59.2112 2.45441 59.2112 2.4543C59.2112 2.45418 59.2112 2.45406 59.2112 2.45394C59.2112 2.45383 59.2112 2.45371 59.2112 2.45359C59.2112 2.45347 59.2112 2.45336 59.2112 2.45324C59.2112 2.45312 59.2112 2.45301 59.2112 2.45289C59.2112 2.45277 59.2112 2.45265 59.2112 2.45254C59.2112 2.45242 59.2112 2.4523 59.2112 2.45219C59.2112 2.45207 59.2112 2.45195 59.2112 2.45183C59.2112 2.45172 59.2112 2.4516 59.2112 2.45148C59.2112 2.45137 59.2112 2.45125 59.2112 2.45113C59.2112 2.45101 59.2112 2.4509 59.2112 2.45078C59.2112 2.45066 59.2112 2.45055 59.2112 2.45043C59.2112 2.45031 59.2112 2.45019 59.2112 2.45008C59.2112 2.44996 59.2112 2.44984 59.2112 2.44973C59.2112 2.44961 59.2112 2.44949 59.2112 2.44937C59.2112 2.44926 59.2112 2.44914 59.2112 2.44902C59.2112 2.4489 59.2112 2.44879 59.2112 2.44867C59.2112 2.44855 59.2112 2.44844 59.2112 2.44832C59.2112 2.4482 59.2112 2.44808 59.2112 2.44797C59.2112 2.44785 59.2112 2.44773 59.2112 2.44762C59.2112 2.4475 59.2112 2.44738 59.2112 2.44726C59.2112 2.44715 59.2112 2.44703 59.2112 2.44691C59.2112 2.4468 59.2112 2.44668 59.2112 2.44656C59.2112 2.44644 59.2112 2.44633 59.2112 2.44621C59.2112 2.44609 59.2112 2.44598 59.2112 2.44586C59.2112 2.44574 59.2112 2.44562 59.2112 2.44551C59.2112 2.44539 59.2112 2.44527 59.2112 2.44516C59.2112 2.44504 59.2112 2.44492 59.2112 2.4448C59.2112 2.44469 59.2112 2.44457 59.2112 2.44445C59.2112 2.44433 59.2112 2.44422 59.2112 2.4441C59.2112 2.44398 59.2112 2.44387 59.2112 2.44375C59.2112 2.44363 59.2112 2.44351 59.2112 2.4434C59.2112 2.44328 59.2112 2.44316 59.2112 2.44305C59.2112 2.44293 59.2112 2.44281 59.2112 2.44269C59.2112 2.44258 59.2112 2.44246 59.2112 2.44234C59.2112 2.44223 59.2112 2.44211 59.2112 2.44199C59.2112 2.44187 59.2112 2.44176 59.2112 2.44164C59.2112 2.44152 59.2112 2.4414 59.2112 2.44129C59.2112 2.44117 59.2112 2.44105 59.2112 2.44094C59.2112 2.44082 59.2112 2.4407 59.2112 2.44058C59.2112 2.44047 59.2112 2.44035 59.2112 2.44023C59.2112 2.44012 59.2112 2.44 59.2112 2.43988C59.2112 2.43976 59.2112 2.43965 59.2112 2.43953C59.2112 2.43941 59.2112 2.4393 59.2112 2.43918C59.2112 2.43906 59.2112 2.43894 59.2112 2.43883C59.2112 2.43871 59.2112 2.43859 59.2112 2.43847C59.2112 2.43836 59.2112 2.43824 59.2112 2.43812C59.2112 2.43801 59.2112 2.43789 59.2112 2.43777C59.2112 2.43765 59.2112 2.43754 59.2112 2.43742C59.2112 2.4373 59.2112 2.43719 59.2112 2.43707C59.2112 2.43695 59.2112 2.43683 59.2112 2.43672C59.2112 2.4366 59.2112 2.43648 59.2112 2.43637C59.2112 2.43625 59.2112 2.43613 59.2112 2.43601C59.2112 2.4359 59.2112 2.43578 59.2112 2.43566C59.2112 2.43554 59.2112 2.43543 59.2112 2.43531C59.2112 2.43519 59.2112 2.43508 59.2112 2.43496C59.2112 2.43484 59.2112 2.43472 59.2112 2.43461C59.2112 2.43449 59.2112 2.43437 59.2112 2.43426C59.2112 2.43414 59.2112 2.43402 59.2112 2.4339C59.2112 2.43379 59.2112 2.43367 59.2112 2.43355C59.2112 2.43344 59.2112 2.43332 59.2112 2.4332C59.2112 2.43308 59.2112 2.43297 59.2112 2.43285C59.2112 2.43273 59.2112 2.43262 59.2112 2.4325C59.2112 2.43238 59.2112 2.43226 59.2112 2.43215C59.2112 2.43203 59.2112 2.43191 59.2112 2.4318C59.2112 2.43168 59.2112 2.43156 59.2112 2.43144C59.2112 2.43133 59.2112 2.43121 59.2112 2.43109C59.2112 2.43097 59.2112 2.43086 59.2112 2.43074C59.2112 2.43062 59.2112 2.43051 59.2112 2.43039C59.2112 2.43027 59.2112 2.43015 59.2112 2.43004C59.2112 2.42992 59.2112 2.4298 59.2112 2.42969C59.2112 2.42957 59.2112 2.42945 59.2112 2.42933C59.2112 2.42922 59.2112 2.4291 59.2112 2.42898C59.2112 2.42887 59.2112 2.42875 59.2112 2.42863C59.2112 2.42851 59.2112 2.4284 59.2112 2.42828C59.2112 2.42816 59.2112 2.42805 59.2112 2.42793C59.2112 2.42781 59.2112 2.42769 59.2112 2.42758C59.2112 2.42746 59.2112 2.42734 59.2112 2.42723C59.2112 2.42711 59.2112 2.42699 59.2112 2.42687C59.2112 2.42676 59.2112 2.42664 59.2112 2.42652C59.2112 2.4264 59.2112 2.42629 59.2112 2.42617C59.2112 2.42605 59.2112 2.42594 59.2112 2.42582C59.2112 2.4257 59.2112 2.42558 59.2112 2.42547C59.2112 2.42535 59.2112 2.42523 59.2112 2.42512C59.2112 2.425 59.2112 2.42488 59.2112 2.42476C59.2112 2.42465 59.2112 2.42453 59.2112 2.42441C59.2112 2.4243 59.2112 2.42418 59.2112 2.42406C59.2112 2.42394 59.2112 2.42383 59.2112 2.42371C59.2112 2.42359 59.2112 2.42348 59.2112 2.42336C59.2112 2.42324 59.2112 2.42312 59.2112 2.42301C59.2112 2.42289 59.2112 2.42277 59.2112 2.42266C59.2112 2.42254 59.2112 2.42242 59.2112 2.4223C59.2112 2.42219 59.2112 2.42207 59.2112 2.42195C59.2112 2.42183 59.2112 2.42172 59.2112 2.4216C59.2112 2.42148 59.2112 2.42137 59.2112 2.42125C59.2112 2.42113 59.2112 2.42101 59.2112 2.4209C59.2112 2.42078 59.2112 2.42066 59.2112 2.42055C59.2112 2.42043 59.2112 2.42031 59.2112 2.42019C59.2112 2.42008 59.2112 2.41996 59.2112 2.41984C59.2112 2.41972 59.2112 2.41961 59.2112 2.41949C59.2112 2.41937 59.2112 2.41926 59.2112 2.41914C59.2112 2.41902 59.2112 2.4189 59.2112 2.41879C59.2112 2.41867 59.2112 2.41855 59.2112 2.41844C59.2112 2.41832 59.2112 2.4182 59.2112 2.41808C59.2112 2.41797 59.2112 2.41785 59.2112 2.41773C59.2112 2.41762 59.2112 2.4175 59.2112 2.41738C59.2112 2.41726 59.2112 2.41715 59.2112 2.41703C59.2112 2.41691 59.2112 2.41679 59.2112 2.41668C59.2112 2.41656 59.2112 2.41644 59.2112 2.41633C59.2112 2.41621 59.2112 2.41609 59.2112 2.41597C59.2112 2.41586 59.2112 2.41574 59.2112 2.41562C59.2112 2.41551 59.2112 2.41539 59.2112 2.41527C59.2112 2.41515 59.2112 2.41504 59.2112 2.41492C59.2112 2.4148 59.2112 2.41469 59.2112 2.41457C59.2112 2.41445 59.2112 2.41433 59.2112 2.41422C59.2112 2.4141 59.2112 2.41398 59.2112 2.41387C59.2112 2.41375 59.2112 2.41363 59.2112 2.41351C59.2112 2.4134 59.2112 2.41328 59.2112 2.41316C59.2112 2.41304 59.2112 2.41293 59.2112 2.41281C59.2112 2.41269 59.2112 2.41258 59.2112 2.41246C59.2112 2.41234 59.2112 2.41222 59.2112 2.41211C59.2112 2.41199 59.2112 2.41187 59.2112 2.41176C59.2112 2.41164 59.2112 2.41152 59.2112 2.4114C59.2112 2.41129 59.2112 2.41117 59.2112 2.41105C59.2112 2.41094 59.2112 2.41082 59.2112 2.4107C59.2112 2.41058 59.2112 2.41047 59.2112 2.41035C59.2112 2.41023 59.2112 2.41012 59.2112 2.41H55.2112ZM55.2112 2.59C55.2112 2.91504 55.0978 3.52666 54.699 4.50541L58.4034 6.01459C58.8846 4.83334 59.2112 3.66496 59.2112 2.59H55.2112ZM54.704 4.49325C54.4932 5.00109 54.3323 5.35013 54.2182 5.56724C54.1603 5.6775 54.1327 5.71847 54.1345 5.71587C54.1361 5.71355 54.1593 5.67965 54.2043 5.62938C54.2426 5.58662 54.3447 5.47733 54.5118 5.3659L56.7306 8.6941C57.106 8.44386 57.3357 8.11964 57.4266 7.98788C57.5509 7.80778 57.6621 7.6125 57.7592 7.42776C57.9551 7.05487 58.1692 6.57891 58.3984 6.02675L54.704 4.49325ZM56.5378 5.25239C55.084 4.50276 53.614 4.04 52.1712 4.04V8.04C52.7684 8.04 53.5985 8.23724 54.7046 8.80761L56.5378 5.25239ZM52.1712 4.04C51.4912 4.04 50.6211 4.15162 49.8776 4.68693C49.0126 5.30974 48.6712 6.24062 48.6712 7.12H52.6712C52.6712 7.17035 52.6622 7.31003 52.5799 7.48775C52.4926 7.67624 52.3587 7.82947 52.2148 7.93307C52.0832 8.02785 51.9855 8.05138 51.9817 8.05227C51.979 8.05292 52.0348 8.04 52.1712 8.04V4.04ZM48.6712 7.12C48.6712 8.84854 50.1171 9.7264 50.9462 10.1074L52.6162 6.47265C52.5031 6.4207 52.4328 6.37979 52.3945 6.35461C52.3553 6.32879 52.3652 6.32968 52.3996 6.36598C52.4355 6.40376 52.5059 6.48862 52.5673 6.62631C52.6315 6.77025 52.6712 6.94016 52.6712 7.12H48.6712ZM50.8868 10.0789C51.0711 10.171 51.3203 10.29 51.6254 10.4324L53.317 6.80763C53.0221 6.67003 52.8113 6.569 52.6756 6.50115L50.8868 10.0789ZM51.6254 10.4324C51.8895 10.5556 52.2002 10.7106 52.5597 10.8998L54.4227 7.36016C54.0223 7.1494 53.6529 6.96439 53.317 6.80763L51.6254 10.4324ZM52.6705 10.9538C52.9439 11.0769 53.2616 11.255 53.6245 11.5025L55.8779 8.19754C55.3608 7.84502 54.8385 7.54311 54.3119 7.30616L52.6705 10.9538ZM53.7113 11.5584C54.0293 11.7519 54.4136 12.0432 54.8646 12.4596L57.5778 9.52039C56.9888 8.97675 56.3932 8.50808 55.7911 8.1416L53.7113 11.5584ZM54.8488 12.4448C55.4561 13.0177 55.8112 13.7846 55.8112 14.95H59.8112C59.8112 12.8354 59.1063 10.9623 57.5937 9.53521L54.8488 12.4448ZM55.8112 14.95C55.8112 16.7039 55.3376 17.9592 54.5306 18.8893L57.5519 21.5107C59.1048 19.7208 59.8112 17.4761 59.8112 14.95H55.8112ZM54.5306 18.8893C53.8448 19.6797 52.6574 20.266 50.5487 20.3003L50.6137 24.2997C53.425 24.254 55.8776 23.4403 57.5519 21.5107L54.5306 18.8893ZM50.5812 20.3C49.4898 20.3 48.5365 20.2088 47.7111 20.0404L46.9113 23.9596C48.0459 24.1912 49.2726 24.3 50.5812 24.3V20.3ZM47.7191 20.042C47.0498 19.9026 46.5044 19.6418 46.0459 19.2725L43.5365 22.3875C44.518 23.1782 45.6526 23.6974 46.9033 23.958L47.7191 20.042ZM46.0459 19.2725C45.7292 19.0174 45.7112 18.8626 45.7112 18.73H41.7112C41.7112 20.2374 42.4132 21.4826 43.5365 22.3875L46.0459 19.2725ZM45.7112 18.73C45.7112 18.1598 45.8145 17.5872 46.0339 17.0022L42.2886 15.5978C41.9079 16.6128 41.7112 17.6602 41.7112 18.73H45.7112ZM46.0395 16.9872C46.1623 16.6515 46.2684 16.4319 46.3468 16.2996C46.4318 16.1562 46.4411 16.1884 46.3361 16.2687L43.9063 13.0913C43.0823 13.7214 42.6029 14.7383 42.283 15.6128L46.0395 16.9872ZM75.2487 12.94L73.2778 12.6002L73.2729 12.6286L73.2688 12.6572L75.2487 12.94ZM70.9587 13.78V11.78H68.9587V13.78H70.9587ZM70.9587 16.78H68.9587V18.78H70.9587V16.78ZM77.1687 18.1L75.187 18.3702L75.1899 18.3911L75.1932 18.4119L77.1687 18.1ZM77.0787 20.98L75.1091 20.6324V20.6324L77.0787 20.98ZM70.9587 6.31V4.31H68.9587V6.31H70.9587ZM70.9587 9.34H68.9587V11.34H70.9587V9.34ZM74.8287 11.34C74.5555 11.34 74.2798 11.2737 74.0308 11.1426C73.791 11.0164 73.6282 10.8582 73.5272 10.7341C73.3466 10.5123 73.3125 10.3391 73.326 10.3889C73.3496 10.4758 73.3987 10.7852 73.3987 11.44H77.3987C77.3987 10.6948 77.3528 9.95423 77.1864 9.3411C77.1049 9.04094 76.952 8.60517 76.629 8.2084C76.2572 7.7518 75.6404 7.34 74.8287 7.34V11.34ZM73.3987 11.44C73.3987 11.711 73.3655 12.0916 73.2778 12.6002L77.2196 13.2798C77.3319 12.6284 77.3987 12.009 77.3987 11.44H73.3987ZM73.2688 12.6572C73.2417 12.8469 73.2264 12.7629 73.3322 12.5777C73.3938 12.47 73.5304 12.2685 73.7868 12.089C74.0668 11.893 74.4109 11.78 74.7687 11.78V15.78C75.8487 15.78 76.5083 15.0818 76.8052 14.5623C77.071 14.0971 77.1757 13.5931 77.2286 13.2228L73.2688 12.6572ZM74.7687 11.78H70.9587V15.78H74.7687V11.78ZM68.9587 13.78V16.78H72.9587V13.78H68.9587ZM70.9587 18.78H76.4787V14.78H70.9587V18.78ZM76.4787 18.78C76.0944 18.78 75.7477 18.6439 75.491 18.4457C75.2641 18.2705 75.1625 18.0914 75.1338 18.0365C75.0884 17.9498 75.1377 18.0082 75.187 18.3702L79.1504 17.8298C79.0797 17.3118 78.954 16.7102 78.6787 16.1835C78.3965 15.6437 77.7116 14.78 76.4787 14.78V18.78ZM75.1932 18.4119C75.2348 18.6753 75.2587 18.9799 75.2587 19.33H79.2587C79.2587 18.8001 79.2226 18.2847 79.1442 17.7881L75.1932 18.4119ZM75.2587 19.33C75.2587 19.5833 75.22 20.0041 75.1091 20.6324L79.0483 21.3276C79.1774 20.5959 79.2587 19.9167 79.2587 19.33H75.2587ZM75.1091 20.6324C75.0643 20.8865 75.0355 20.8659 75.1148 20.731C75.1619 20.651 75.2823 20.4709 75.5177 20.3042C75.7775 20.1201 76.1129 20 76.4787 20V24C77.5991 24 78.2665 23.2625 78.5626 22.759C78.8419 22.2841 78.9731 21.7535 79.0483 21.3276L75.1091 20.6324ZM76.4787 20H66.2187V24H76.4787V20ZM66.2187 20C66.0594 20 66.3111 19.9593 66.628 20.2178C66.7983 20.3568 66.9257 20.5352 67.0014 20.7204C67.0721 20.8934 67.0787 21.0245 67.0787 21.07H63.0787C63.0787 21.808 63.3247 22.6852 64.0995 23.3172C64.7963 23.8857 65.6181 24 66.2187 24V20ZM67.0787 21.07V1.78H63.0787V21.07H67.0787ZM67.0787 1.78C67.0787 1.79099 67.0782 1.87538 67.0402 2.00441C67.0002 2.14003 66.9162 2.33134 66.7492 2.52015C66.3713 2.94739 65.9149 3 65.7687 3V-1C65.1625 -1 64.3612 -0.817395 63.7532 -0.130148C63.1866 0.510333 63.0787 1.26794 63.0787 1.78H67.0787ZM65.7687 3H76.5087V-1H65.7687V3ZM76.5087 3C76.1873 3 75.8795 2.90936 75.6205 2.75258C75.3775 2.60545 75.2301 2.43277 75.1519 2.3224C75.0148 2.1287 75.0066 2.00802 75.0347 2.1268C75.0848 2.33934 75.1387 2.81825 75.1387 3.67H79.1387C79.1387 2.74175 79.0876 1.88566 78.9278 1.2082C78.8508 0.881981 78.7114 0.427545 78.4167 0.0113482C78.0868 -0.454839 77.4506 -1 76.5087 -1V3ZM75.1387 3.67C75.1387 4.51124 75.0848 4.9806 75.0358 5.18576C75.0085 5.30044 75.0181 5.17635 75.1581 4.98078C75.2378 4.86941 75.3864 4.69802 75.6291 4.55274C75.8871 4.39827 76.1919 4.31 76.5087 4.31V8.31C77.4405 8.31 78.0762 7.7763 78.4106 7.30922C78.7081 6.89365 78.849 6.43956 78.9266 6.11424C79.0876 5.4394 79.1387 4.58876 79.1387 3.67H75.1387ZM76.5087 4.31H70.9587V8.31H76.5087V4.31ZM68.9587 6.31V9.34H72.9587V6.31H68.9587ZM70.9587 11.34H74.8287V7.34H70.9587V11.34ZM87.4436 22.09C87.4436 21.482 87.7153 21.0324 87.9494 20.7736C88.1633 20.5372 88.3815 20.4137 88.4823 20.3617C88.5969 20.3026 88.6897 20.2706 88.7351 20.2561C88.7852 20.2401 88.8205 20.232 88.8338 20.229C88.8599 20.2232 88.7982 20.2371 88.5842 20.2529C88.1852 20.2823 87.5326 20.3 86.5936 20.3V24.3C87.5546 24.3 88.3271 24.2827 88.8781 24.2421C89.139 24.2229 89.4336 24.193 89.6972 24.1347C89.8115 24.1095 90.0555 24.051 90.3159 23.9167C90.4114 23.8675 91.4436 23.3496 91.4436 22.09H87.4436ZM86.5936 20.3C85.6632 20.3 85.0101 20.2849 84.606 20.2591C84.391 20.2453 84.3164 20.2326 84.326 20.2344C84.3344 20.236 84.3632 20.2417 84.4059 20.2535C84.4439 20.264 84.5275 20.2888 84.6336 20.3362C84.721 20.3752 84.9415 20.4806 85.1678 20.6972C85.4096 20.9287 85.7736 21.4095 85.7736 22.12H81.7736C81.7736 22.8455 82.145 23.3408 82.4015 23.5864C82.6424 23.8171 82.885 23.936 83.0018 23.9882C83.2445 24.0966 83.4692 24.143 83.5737 24.1631C83.8184 24.2099 84.0963 24.2347 84.3512 24.2509C84.8872 24.2851 85.6441 24.3 86.5936 24.3V20.3ZM85.7736 22.12V16.72H81.7736V22.12H85.7736ZM85.7736 16.72C85.7736 17.6811 85.1273 18.1866 84.9312 18.3181C84.7069 18.4684 84.5199 18.519 84.502 18.5241C84.4379 18.5426 84.466 18.5279 84.6693 18.5084C85.0408 18.4728 85.668 18.45 86.5936 18.45V14.45C85.6392 14.45 84.8565 14.4722 84.288 14.5266C84.0213 14.5521 83.6969 14.5937 83.3977 14.6796C83.2623 14.7185 82.9872 14.8057 82.7042 14.9953C82.4493 15.1662 81.7736 15.7139 81.7736 16.72H85.7736ZM86.5936 18.45C87.5358 18.45 88.2055 18.4626 88.626 18.4847C88.7286 18.4901 88.8083 18.4957 88.8681 18.5009C88.931 18.5065 88.9558 18.5103 88.9536 18.5099C88.9517 18.5096 88.9316 18.5065 88.8987 18.499C88.8705 18.4925 88.8001 18.4756 88.7077 18.4415C88.639 18.4162 88.4252 18.3347 88.1932 18.1516C87.9725 17.9773 87.4436 17.4678 87.4436 16.6H91.4436C91.4436 15.7197 90.9074 15.1981 90.6718 15.0121C90.425 14.8172 90.1889 14.7244 90.0905 14.6882C89.873 14.608 89.6728 14.5739 89.5774 14.5588C89.3525 14.5233 89.0899 14.5036 88.8363 14.4903C88.3068 14.4624 87.5515 14.45 86.5936 14.45V18.45ZM87.4436 16.6V22.09H91.4436V16.6H87.4436ZM99.0991 22.09C99.0991 21.482 99.3708 21.0324 99.6049 20.7736C99.8187 20.5372 100.037 20.4137 100.138 20.3617C100.252 20.3026 100.345 20.2706 100.391 20.2561C100.441 20.2401 100.476 20.232 100.489 20.229C100.515 20.2232 100.454 20.2371 100.24 20.2529C99.8407 20.2823 99.1881 20.3 98.2491 20.3V24.3C99.2101 24.3 99.9825 24.2827 100.534 24.2421C100.794 24.2229 101.089 24.193 101.353 24.1347C101.467 24.1095 101.711 24.051 101.971 23.9167C102.067 23.8675 103.099 23.3496 103.099 22.09H99.0991ZM98.2491 20.3C97.3186 20.3 96.6656 20.2849 96.2615 20.2591C96.0465 20.2453 95.9718 20.2326 95.9815 20.2344C95.9899 20.236 96.0187 20.2417 96.0614 20.2535C96.0993 20.264 96.183 20.2888 96.289 20.3362C96.3765 20.3752 96.597 20.4806 96.8233 20.6972C97.0651 20.9287 97.4291 21.4095 97.4291 22.12H93.4291C93.4291 22.8455 93.8005 23.3408 94.057 23.5864C94.2979 23.8171 94.5405 23.936 94.6573 23.9882C94.9 24.0966 95.1247 24.143 95.2292 24.1631C95.4739 24.2099 95.7517 24.2347 96.0067 24.2509C96.5426 24.2851 97.2996 24.3 98.2491 24.3V20.3ZM97.4291 22.12V16.72H93.4291V22.12H97.4291ZM97.4291 16.72C97.4291 17.6811 96.7828 18.1866 96.5866 18.3181C96.3624 18.4684 96.1754 18.519 96.1575 18.5241C96.0933 18.5426 96.1215 18.5279 96.3247 18.5084C96.6963 18.4728 97.3235 18.45 98.2491 18.45V14.45C97.2947 14.45 96.5119 14.4722 95.9435 14.5266C95.6767 14.5521 95.3524 14.5937 95.0532 14.6796C94.9178 14.7185 94.6427 14.8057 94.3597 14.9953C94.1048 15.1662 93.4291 15.7139 93.4291 16.72H97.4291ZM98.2491 18.45C99.1913 18.45 99.8609 18.4626 100.281 18.4847C100.384 18.4901 100.464 18.4957 100.524 18.5009C100.586 18.5065 100.611 18.5103 100.609 18.5099C100.607 18.5096 100.587 18.5065 100.554 18.499C100.526 18.4925 100.456 18.4756 100.363 18.4415C100.294 18.4162 100.081 18.3347 99.8487 18.1516C99.6279 17.9773 99.0991 17.4678 99.0991 16.6H103.099C103.099 15.7197 102.563 15.1981 102.327 15.0121C102.08 14.8172 101.844 14.7244 101.746 14.6882C101.528 14.608 101.328 14.5739 101.233 14.5588C101.008 14.5233 100.745 14.5036 100.492 14.4903C99.9623 14.4624 99.2069 14.45 98.2491 14.45V18.45ZM99.0991 16.6V22.09H103.099V16.6H99.0991Z" fill="white" mask="url(#path-1-outside-1_560_78)"/>
</svg>
