<svg width="70" height="19" viewBox="0 0 70 19" fill="none" xmlns="http://www.w3.org/2000/svg">
<mask id="path-1-outside-1_560_77" maskUnits="userSpaceOnUse" x="-1" y="-2" width="73" height="23" fill="black">
<rect fill="white" x="-1" y="-2" width="73" height="23"/>
<path d="M1.05771 0.749999C1.00771 0.566666 1.84938 0.474999 3.58272 0.474999C5.49938 0.474999 6.48272 0.633332 6.53272 0.949999L7.75771 11.475L10.4077 0.824999C10.491 0.574999 11.141 0.449999 12.3577 0.449999C13.5744 0.449999 14.2244 0.566666 14.3077 0.799999L16.9077 11.525L18.3577 0.9C18.391 0.716666 18.7744 0.591665 19.5077 0.524998C20.241 0.458333 20.8327 0.425 21.2827 0.425C23.0327 0.425 23.8827 0.541666 23.8327 0.775L20.8077 17.35C20.741 17.6 20.266 17.7833 19.3827 17.9C18.4994 18.0167 17.7827 18.075 17.2327 18.075C15.166 18.075 14.0827 17.8417 13.9827 17.375L12.2827 10.5L10.4327 17.35C10.366 17.65 9.78272 17.8667 8.68271 18C8.11605 18.05 7.54938 18.075 6.98272 18.075L5.38271 18C4.28271 17.8833 3.69938 17.675 3.63271 17.375L1.05771 0.749999ZM31.2608 13.7V4.8H29.4858C29.2025 4.8 29.0025 4.44167 28.8858 3.725C28.8358 3.375 28.8108 3.01667 28.8108 2.65C28.8108 2.28333 28.8358 1.925 28.8858 1.575C29.0025 0.858332 29.2025 0.499999 29.4858 0.499999H37.8858C38.1692 0.499999 38.3608 0.858332 38.4608 1.575C38.5275 1.925 38.5608 2.28333 38.5608 2.65C38.5608 3.01667 38.5275 3.375 38.4608 3.725C38.3608 4.44167 38.1692 4.8 37.8858 4.8H36.2108V13.7H37.9608C38.2442 13.7 38.4442 14.0583 38.5608 14.775C38.6275 15.125 38.6608 15.4833 38.6608 15.85C38.6608 16.2167 38.6275 16.575 38.5608 16.925C38.4442 17.6417 38.2442 18 37.9608 18H29.5358C29.2525 18 29.0608 17.6417 28.9608 16.925C28.8942 16.575 28.8608 16.2167 28.8608 15.85C28.8608 15.4833 28.8942 15.125 28.9608 14.775C29.0608 14.0583 29.2525 13.7 29.5358 13.7H31.2608ZM58.0286 17.45C58.0286 17.8 57.2453 17.975 55.6786 17.975C54.1119 17.975 53.2619 17.85 53.1286 17.6L48.9536 9.8V17.575C48.9536 17.875 48.1786 18.025 46.6286 18.025C45.0953 18.025 44.3286 17.875 44.3286 17.575V0.849999C44.3286 0.599999 44.9869 0.474999 46.3036 0.474999C46.8203 0.474999 47.4203 0.524999 48.1036 0.624999C48.8036 0.708332 49.2286 0.874999 49.3786 1.125L53.3786 8.825V0.974999C53.3786 0.658332 54.1536 0.499999 55.7036 0.499999C57.2536 0.499999 58.0286 0.658332 58.0286 0.974999V17.45ZM68.5396 12.75C68.5396 12.85 67.9396 12.9 66.7396 12.9C65.5562 12.9 64.9646 12.8583 64.9646 12.775L64.4646 0.449999C64.4646 0.316666 65.2229 0.249999 66.7396 0.249999C68.2729 0.249999 69.0396 0.308333 69.0396 0.425L68.5396 12.75ZM64.4146 14.25C64.4146 14.1333 65.1812 14.075 66.7146 14.075C68.2646 14.075 69.0396 14.125 69.0396 14.225V17.825C69.0396 17.9917 68.2646 18.075 66.7146 18.075C65.1812 18.075 64.4146 18.025 64.4146 17.925V14.25Z"/>
</mask>
<path d="M1.05771 0.749999C1.00771 0.566666 1.84938 0.474999 3.58272 0.474999C5.49938 0.474999 6.48272 0.633332 6.53272 0.949999L7.75771 11.475L10.4077 0.824999C10.491 0.574999 11.141 0.449999 12.3577 0.449999C13.5744 0.449999 14.2244 0.566666 14.3077 0.799999L16.9077 11.525L18.3577 0.9C18.391 0.716666 18.7744 0.591665 19.5077 0.524998C20.241 0.458333 20.8327 0.425 21.2827 0.425C23.0327 0.425 23.8827 0.541666 23.8327 0.775L20.8077 17.35C20.741 17.6 20.266 17.7833 19.3827 17.9C18.4994 18.0167 17.7827 18.075 17.2327 18.075C15.166 18.075 14.0827 17.8417 13.9827 17.375L12.2827 10.5L10.4327 17.35C10.366 17.65 9.78272 17.8667 8.68271 18C8.11605 18.05 7.54938 18.075 6.98272 18.075L5.38271 18C4.28271 17.8833 3.69938 17.675 3.63271 17.375L1.05771 0.749999ZM31.2608 13.7V4.8H29.4858C29.2025 4.8 29.0025 4.44167 28.8858 3.725C28.8358 3.375 28.8108 3.01667 28.8108 2.65C28.8108 2.28333 28.8358 1.925 28.8858 1.575C29.0025 0.858332 29.2025 0.499999 29.4858 0.499999H37.8858C38.1692 0.499999 38.3608 0.858332 38.4608 1.575C38.5275 1.925 38.5608 2.28333 38.5608 2.65C38.5608 3.01667 38.5275 3.375 38.4608 3.725C38.3608 4.44167 38.1692 4.8 37.8858 4.8H36.2108V13.7H37.9608C38.2442 13.7 38.4442 14.0583 38.5608 14.775C38.6275 15.125 38.6608 15.4833 38.6608 15.85C38.6608 16.2167 38.6275 16.575 38.5608 16.925C38.4442 17.6417 38.2442 18 37.9608 18H29.5358C29.2525 18 29.0608 17.6417 28.9608 16.925C28.8942 16.575 28.8608 16.2167 28.8608 15.85C28.8608 15.4833 28.8942 15.125 28.9608 14.775C29.0608 14.0583 29.2525 13.7 29.5358 13.7H31.2608ZM58.0286 17.45C58.0286 17.8 57.2453 17.975 55.6786 17.975C54.1119 17.975 53.2619 17.85 53.1286 17.6L48.9536 9.8V17.575C48.9536 17.875 48.1786 18.025 46.6286 18.025C45.0953 18.025 44.3286 17.875 44.3286 17.575V0.849999C44.3286 0.599999 44.9869 0.474999 46.3036 0.474999C46.8203 0.474999 47.4203 0.524999 48.1036 0.624999C48.8036 0.708332 49.2286 0.874999 49.3786 1.125L53.3786 8.825V0.974999C53.3786 0.658332 54.1536 0.499999 55.7036 0.499999C57.2536 0.499999 58.0286 0.658332 58.0286 0.974999V17.45ZM68.5396 12.75C68.5396 12.85 67.9396 12.9 66.7396 12.9C65.5562 12.9 64.9646 12.8583 64.9646 12.775L64.4646 0.449999C64.4646 0.316666 65.2229 0.249999 66.7396 0.249999C68.2729 0.249999 69.0396 0.308333 69.0396 0.425L68.5396 12.75ZM64.4146 14.25C64.4146 14.1333 65.1812 14.075 66.7146 14.075C68.2646 14.075 69.0396 14.125 69.0396 14.225V17.825C69.0396 17.9917 68.2646 18.075 66.7146 18.075C65.1812 18.075 64.4146 18.025 64.4146 17.925V14.25Z" fill="#2988FB"/>
<path d="M1.05771 0.749999L3.03415 0.443874L3.0169 0.332497L2.98724 0.223763L1.05771 0.749999ZM6.53271 0.949999L8.5193 0.718781L8.5146 0.678315L8.50824 0.638074L6.53271 0.949999ZM7.75771 11.475L5.77113 11.7062L9.69853 11.9579L7.75771 11.475ZM10.4077 0.824999L8.51035 0.192544L8.48571 0.266461L8.4669 0.342072L10.4077 0.824999ZM14.3077 0.799999L16.2514 0.328799L16.2266 0.226478L16.1912 0.127327L14.3077 0.799999ZM16.9077 11.525L14.964 11.9962L18.8893 11.7954L16.9077 11.525ZM18.3577 0.9L16.39 0.542234L16.3821 0.585746L16.3761 0.629565L18.3577 0.9ZM19.5077 0.524999L19.3266 -1.46679L19.3266 -1.46679L19.5077 0.524999ZM23.8327 0.775L21.8771 0.355939L21.8707 0.38584L21.8652 0.415923L23.8327 0.775ZM20.8077 17.35L22.7402 17.8653L22.7608 17.7879L22.7752 17.7091L20.8077 17.35ZM19.3827 17.9L19.1208 15.9172L19.3827 17.9ZM13.9827 17.375L15.9383 16.9559L15.9318 16.9253L15.9242 16.8949L13.9827 17.375ZM12.2827 10.5L14.2242 10.0199L12.3681 2.51329L10.3519 9.97854L12.2827 10.5ZM10.4327 17.35L8.50189 16.8285L8.49013 16.8721L8.48034 16.9161L10.4327 17.35ZM8.68272 18L8.8585 19.9923L8.891 19.9894L8.92338 19.9855L8.68272 18ZM6.98272 18.075L6.88907 20.0728L6.93587 20.075H6.98272V18.075ZM5.38272 18L5.17178 19.9888L5.23029 19.9951L5.28907 19.9978L5.38272 18ZM3.63271 17.375L1.65628 17.6811L1.66623 17.7454L1.68034 17.8089L3.63271 17.375ZM2.98724 0.223763C3.08719 0.590242 3.08199 0.998639 2.94201 1.39009C2.81076 1.75716 2.59897 2.0052 2.44098 2.15176C2.15908 2.41329 1.88375 2.50503 1.84367 2.51895C1.71958 2.56205 1.68803 2.55159 1.86801 2.53199C2.1759 2.49846 2.73 2.475 3.58272 2.475V-1.525C2.70209 -1.525 1.96869 -1.50263 1.43492 -1.44449C1.19406 -1.41826 0.853141 -1.37143 0.531134 -1.25958C0.392094 -1.21128 0.0456696 -1.0823 -0.279461 -0.780672C-0.690272 -0.399559 -1.12447 0.349841 -0.871812 1.27623L2.98724 0.223763ZM3.58272 2.475C4.51287 2.475 5.10945 2.51513 5.43978 2.56832C5.61929 2.59722 5.59891 2.6118 5.48489 2.55939C5.42388 2.53135 5.25506 2.44772 5.07186 2.26857C4.87358 2.07466 4.63257 1.73931 4.55719 1.26192L8.50824 0.638074C8.33136 -0.482208 7.43024 -0.948746 7.15554 -1.07502C6.78319 -1.24618 6.38781 -1.33056 6.07565 -1.38082C5.42264 -1.48596 4.56923 -1.525 3.58272 -1.525V2.475ZM4.54613 1.18122L5.77113 11.7062L9.7443 11.2438L8.5193 0.718781L4.54613 1.18122ZM9.69853 11.9579L12.3485 1.30793L8.4669 0.342072L5.8169 10.9921L9.69853 11.9579ZM12.3051 1.45745C12.0876 2.10988 11.6075 2.38002 11.487 2.44162C11.3404 2.5166 11.2605 2.52217 11.3354 2.50776C11.4729 2.48133 11.7897 2.45 12.3577 2.45V-1.55C11.7091 -1.55 11.0926 -1.51883 10.58 -1.42026C10.33 -1.37217 9.99583 -1.28847 9.66589 -1.11975C9.36209 -0.964399 8.76949 -0.584884 8.51035 0.192544L12.3051 1.45745ZM12.3577 2.45C12.9286 2.45 13.2552 2.47927 13.4044 2.50604C13.486 2.52069 13.4157 2.51781 13.2775 2.45184C13.2028 2.4162 13.0612 2.34003 12.9059 2.19909C12.7449 2.05299 12.5468 1.81579 12.4242 1.47267L16.1912 0.127327C15.9078 -0.666204 15.2787 -1.02528 15.0004 -1.15809C14.6789 -1.31156 14.3544 -1.38736 14.111 -1.43104C13.6102 -1.52093 13.0034 -1.55 12.3577 -1.55V2.45ZM12.364 1.2712L14.964 11.9962L18.8514 11.0538L16.2514 0.328799L12.364 1.2712ZM18.8893 11.7954L20.3393 1.17043L16.3761 0.629565L14.9261 11.2546L18.8893 11.7954ZM20.3255 1.25776C20.2124 1.8797 19.8338 2.23628 19.638 2.38112C19.449 2.52102 19.2984 2.56755 19.2903 2.57021C19.2677 2.57757 19.3704 2.54572 19.6888 2.51678L19.3266 -1.46679C18.9116 -1.42906 18.4561 -1.36507 18.0502 -1.23271C17.8504 -1.16755 17.5519 -1.05123 17.2587 -0.834245C16.9588 -0.612327 16.5197 -0.171366 16.39 0.542234L20.3255 1.25776ZM19.6888 2.51679C20.3945 2.45263 20.9189 2.425 21.2827 2.425V-1.575C20.7466 -1.575 20.0876 -1.53596 19.3266 -1.46679L19.6888 2.51679ZM21.2827 2.425C22.1399 2.425 22.6772 2.455 22.9608 2.49392C23.1307 2.51725 23.0619 2.52511 22.8998 2.45419C22.8262 2.42198 22.55 2.29703 22.2908 1.99455C22.148 1.82799 21.9968 1.59114 21.9085 1.28206C21.8179 0.96488 21.815 0.645766 21.8771 0.355939L25.7883 1.19406C25.9432 0.471205 25.697 -0.177882 25.3278 -0.608613C25.0248 -0.96213 24.6767 -1.13448 24.5031 -1.21044C24.141 -1.36887 23.7597 -1.43392 23.5047 -1.46892C22.9383 -1.54666 22.1756 -1.575 21.2827 -1.575V2.425ZM21.8652 0.415923L18.8402 16.9909L22.7752 17.7091L25.8002 1.13408L21.8652 0.415923ZM18.8752 16.8347C19.0007 16.3642 19.2782 16.0861 19.4318 15.9633C19.511 15.8999 19.577 15.8611 19.6152 15.8406C19.6543 15.8197 19.6785 15.8102 19.6813 15.8092C19.6834 15.8083 19.6417 15.824 19.5373 15.8471C19.4365 15.8693 19.2997 15.8936 19.1208 15.9172L19.6446 19.8828C20.1449 19.8167 20.6663 19.7166 21.1216 19.5408C21.4247 19.4239 22.4362 19.0054 22.7402 17.8653L18.8752 16.8347ZM19.1208 15.9172C18.2782 16.0285 17.6585 16.075 17.2327 16.075V20.075C17.9069 20.075 18.7205 20.0048 19.6446 19.8828L19.1208 15.9172ZM17.2327 16.075C16.2418 16.075 15.6231 16.0163 15.2913 15.9448C15.1186 15.9076 15.145 15.8916 15.2604 15.9599C15.3778 16.0293 15.8026 16.3227 15.9383 16.9559L12.0271 17.7941C12.2128 18.6607 12.8106 19.1582 13.2238 19.4026C13.635 19.6459 14.0801 19.7757 14.4491 19.8552C15.2007 20.017 16.157 20.075 17.2327 20.075V16.075ZM15.9242 16.8949L14.2242 10.0199L10.3412 10.9801L12.0412 17.8551L15.9242 16.8949ZM10.3519 9.97854L8.50189 16.8285L12.3635 17.8715L14.2135 11.0215L10.3519 9.97854ZM8.48034 16.9161C8.59302 16.4091 8.88957 16.1144 9.04135 15.9937C9.18584 15.8789 9.28529 15.8491 9.24884 15.8626C9.22507 15.8715 9.14994 15.8958 9.00371 15.9263C8.86142 15.9558 8.67621 15.9861 8.44205 16.0145L8.92338 19.9855C9.52841 19.9121 10.1312 19.8019 10.6416 19.6124C10.8968 19.5176 11.2233 19.369 11.5303 19.125C11.8446 18.8752 12.2391 18.4409 12.3851 17.7839L8.48034 16.9161ZM8.50693 16.0077C7.99849 16.0526 7.49047 16.075 6.98272 16.075V20.075C7.60829 20.075 8.23361 20.0474 8.8585 19.9923L8.50693 16.0077ZM7.07636 16.0772L5.47636 16.0022L5.28907 19.9978L6.88907 20.0728L7.07636 16.0772ZM5.59365 16.0112C5.35982 15.9864 5.17521 15.9589 5.03373 15.9316C4.88819 15.9035 4.8146 15.8805 4.79289 15.8728C4.75815 15.8604 4.86212 15.8904 5.01166 16.0074C5.1702 16.1314 5.47138 16.4295 5.58509 16.9411L1.68034 17.8089C1.82738 18.4705 2.22648 18.9072 2.54752 19.1582C2.85956 19.4023 3.19062 19.548 3.44754 19.6397C3.96143 19.8233 4.56667 19.9247 5.17178 19.9888L5.59365 16.0112ZM5.60915 17.0689L3.03415 0.443874L-0.918718 1.05612L1.65628 17.6811L5.60915 17.0689ZM31.2608 13.7V15.7H33.2608V13.7H31.2608ZM31.2608 4.8H33.2608V2.8H31.2608V4.8ZM28.8858 3.725L26.9059 4.00784L26.9087 4.02712L26.9118 4.04635L28.8858 3.725ZM28.8858 1.575L26.9118 1.25365L26.9087 1.27287L26.9059 1.29216L28.8858 1.575ZM38.4608 1.575L36.48 1.85139L36.4869 1.90051L36.4962 1.94923L38.4608 1.575ZM38.4608 3.725L36.4962 3.35077L36.4869 3.39949L36.48 3.44861L38.4608 3.725ZM36.2108 4.8V2.8H34.2108V4.8H36.2108ZM36.2108 13.7H34.2108V15.7H36.2108V13.7ZM38.5608 14.775L36.5868 15.0964L36.5911 15.1229L36.5962 15.1492L38.5608 14.775ZM38.5608 16.925L36.5962 16.5508L36.5911 16.5771L36.5868 16.6036L38.5608 16.925ZM28.9608 16.925L30.9417 16.6486L30.9348 16.5995L30.9255 16.5508L28.9608 16.925ZM28.9608 14.775L30.9255 15.1492L30.9348 15.1005L30.9417 15.0514L28.9608 14.775ZM33.2608 13.7V4.8H29.2608V13.7H33.2608ZM31.2608 2.8H29.4858V6.8H31.2608V2.8ZM29.4858 2.8C29.8713 2.8 30.2186 2.93231 30.4801 3.12619C30.7144 3.29993 30.8289 3.48342 30.8697 3.55652C30.9384 3.67948 30.905 3.68093 30.8599 3.40365L26.9118 4.04635C26.9834 4.48574 27.1083 5.02468 27.3769 5.50598C27.6544 6.00317 28.3189 6.8 29.4858 6.8V2.8ZM30.8657 3.44216C30.8296 3.18924 30.8108 2.92552 30.8108 2.65H26.8108C26.8108 3.10781 26.8421 3.56076 26.9059 4.00784L30.8657 3.44216ZM30.8108 2.65C30.8108 2.37448 30.8296 2.11076 30.8657 1.85784L26.9059 1.29216C26.8421 1.73924 26.8108 2.19219 26.8108 2.65H30.8108ZM30.8599 1.89635C30.905 1.61907 30.9384 1.62051 30.8697 1.74348C30.8289 1.81658 30.7144 2.00007 30.4801 2.17381C30.2186 2.36768 29.8713 2.5 29.4858 2.5V-1.5C28.3189 -1.5 27.6544 -0.703168 27.3769 -0.205983C27.1083 0.275318 26.9834 0.814259 26.9118 1.25365L30.8599 1.89635ZM29.4858 2.5H37.8858V-1.5H29.4858V2.5ZM37.8858 2.5C37.4993 2.5 37.1457 2.36679 36.8767 2.16382C36.6361 1.98232 36.5202 1.78994 36.4785 1.71205C36.4084 1.5809 36.4413 1.57365 36.48 1.85139L40.4417 1.29861C40.3804 0.859679 40.2675 0.314932 40.0057 -0.174555C39.7316 -0.687003 39.0663 -1.5 37.8858 -1.5V2.5ZM36.4962 1.94923C36.5387 2.17233 36.5608 2.40525 36.5608 2.65H40.5608C40.5608 2.16141 40.5164 1.67767 40.4255 1.20077L36.4962 1.94923ZM36.5608 2.65C36.5608 2.89475 36.5387 3.12767 36.4962 3.35077L40.4255 4.09922C40.5164 3.62233 40.5608 3.13859 40.5608 2.65H36.5608ZM36.48 3.44861C36.4413 3.72635 36.4084 3.7191 36.4785 3.58795C36.5202 3.51005 36.6361 3.31768 36.8767 3.13618C37.1457 2.93321 37.4993 2.8 37.8858 2.8V6.8C39.0663 6.8 39.7316 5.987 40.0057 5.47455C40.2675 4.98507 40.3804 4.44032 40.4417 4.00139L36.48 3.44861ZM37.8858 2.8H36.2108V6.8H37.8858V2.8ZM34.2108 4.8V13.7H38.2108V4.8H34.2108ZM36.2108 15.7H37.9608V11.7H36.2108V15.7ZM37.9608 15.7C37.5753 15.7 37.2281 15.5677 36.9666 15.3738C36.7323 15.2001 36.6177 15.0166 36.5769 14.9435C36.5083 14.8205 36.5417 14.8191 36.5868 15.0964L40.5349 14.4536C40.4633 14.0143 40.3384 13.4753 40.0697 12.994C39.7922 12.4968 39.1278 11.7 37.9608 11.7V15.7ZM36.5962 15.1492C36.6387 15.3723 36.6608 15.6053 36.6608 15.85H40.6608C40.6608 15.3614 40.6164 14.8777 40.5255 14.4008L36.5962 15.1492ZM36.6608 15.85C36.6608 16.0947 36.6387 16.3277 36.5962 16.5508L40.5255 17.2992C40.6164 16.8223 40.6608 16.3386 40.6608 15.85H36.6608ZM36.5868 16.6036C36.5417 16.8809 36.5083 16.8795 36.5769 16.7565C36.6177 16.6834 36.7323 16.4999 36.9666 16.3262C37.2281 16.1323 37.5753 16 37.9608 16V20C39.1278 20 39.7922 19.2032 40.0697 18.706C40.3384 18.2247 40.4633 17.6857 40.5349 17.2464L36.5868 16.6036ZM37.9608 16H29.5358V20H37.9608V16ZM29.5358 16C29.9224 16 30.2759 16.1332 30.545 16.3362C30.7856 16.5177 30.9015 16.7101 30.9432 16.7879C31.0133 16.9191 30.9804 16.9263 30.9417 16.6486L26.98 17.2014C27.0413 17.6403 27.1542 18.1851 27.416 18.6746C27.6901 19.187 28.3554 20 29.5358 20V16ZM30.9255 16.5508C30.883 16.3277 30.8608 16.0947 30.8608 15.85H26.8608C26.8608 16.3386 26.9053 16.8223 26.9962 17.2992L30.9255 16.5508ZM30.8608 15.85C30.8608 15.6053 30.883 15.3723 30.9255 15.1492L26.9962 14.4008C26.9053 14.8777 26.8608 15.3614 26.8608 15.85H30.8608ZM30.9417 15.0514C30.9804 14.7737 31.0133 14.7809 30.9432 14.9121C30.9015 14.9899 30.7856 15.1823 30.545 15.3638C30.2759 15.5668 29.9224 15.7 29.5358 15.7V11.7C28.3554 11.7 27.6901 12.513 27.416 13.0254C27.1542 13.5149 27.0413 14.0597 26.98 14.4986L30.9417 15.0514ZM29.5358 15.7H31.2608V11.7H29.5358V15.7ZM53.1286 17.6L54.8933 16.6588L54.8919 16.6562L53.1286 17.6ZM48.9536 9.8L50.7169 8.85618L46.9536 9.8H48.9536ZM48.1036 0.624999L47.814 2.60392L47.8406 2.6078L47.8672 2.61098L48.1036 0.624999ZM49.3786 1.125L51.1534 0.20302L51.1252 0.148599L51.0936 0.0960116L49.3786 1.125ZM53.3786 8.825L51.6038 9.74698L55.3786 8.825H53.3786ZM56.0286 17.45C56.0286 17.0967 56.1341 16.7659 56.3069 16.4956C56.4678 16.2441 56.6536 16.0952 56.7683 16.0183C56.9716 15.882 57.1046 15.8696 57.0051 15.8919C56.8346 15.9299 56.426 15.975 55.6786 15.975V19.975C56.4978 19.975 57.2643 19.9326 57.8772 19.7956C58.1693 19.7304 58.596 19.6086 58.9952 19.3411C59.4351 19.0463 60.0286 18.4247 60.0286 17.45H56.0286ZM55.6786 15.975C54.9273 15.975 54.4376 15.9438 54.1571 15.9025C54.0105 15.881 54.0044 15.8682 54.0756 15.8953C54.1143 15.9101 54.2235 15.9545 54.3591 16.0494C54.4928 16.143 54.7196 16.3331 54.8933 16.6588L51.3639 18.5412C51.7517 19.2682 52.4177 19.5441 52.6503 19.6328C52.9675 19.7537 53.2968 19.819 53.5751 19.86C54.1447 19.9437 54.8632 19.975 55.6786 19.975V15.975ZM54.8919 16.6562L50.7169 8.85618L47.1903 10.7438L51.3653 18.5438L54.8919 16.6562ZM46.9536 9.8V17.575H50.9536V9.8H46.9536ZM46.9536 17.575C46.9536 17.1471 47.102 16.7721 47.3081 16.4928C47.4949 16.2397 47.6987 16.1034 47.804 16.0423C47.9946 15.9317 48.1071 15.9267 47.9923 15.9489C47.7987 15.9864 47.3731 16.025 46.6286 16.025V20.025C47.4341 20.025 48.171 19.9886 48.7524 19.8761C49.0252 19.8233 49.4283 19.7246 49.8126 19.5015C50.1948 19.2795 50.9536 18.6768 50.9536 17.575H46.9536ZM46.6286 16.025C45.8928 16.025 45.4751 15.9864 45.2876 15.9497C45.1762 15.9279 45.2919 15.9339 45.4848 16.047C45.5915 16.1097 45.7946 16.2474 45.9798 16.5011C46.1838 16.7805 46.3286 17.1526 46.3286 17.575H42.3286C42.3286 18.666 43.0733 19.2698 43.46 19.4967C43.8445 19.7224 44.2477 19.8221 44.5196 19.8753C45.0987 19.9886 45.8311 20.025 46.6286 20.025V16.025ZM46.3286 17.575V0.849999H42.3286V17.575H46.3286ZM46.3286 0.849999C46.3286 1.29417 46.1717 1.68007 45.9576 1.96454C45.764 2.22191 45.5529 2.3606 45.442 2.42378C45.2391 2.53934 45.1078 2.55028 45.1954 2.53364C45.3342 2.5073 45.6751 2.475 46.3036 2.475V-1.525C45.6154 -1.525 44.9689 -1.4948 44.4493 -1.39615C44.2077 -1.35028 43.8296 -1.26121 43.4621 -1.0519C43.1046 -0.848242 42.3286 -0.258661 42.3286 0.849999H46.3286ZM46.3036 2.475C46.6973 2.475 47.1968 2.5136 47.814 2.60392L48.3932 -1.35392C47.6437 -1.4636 46.9432 -1.525 46.3036 -1.525V2.475ZM47.8672 2.61098C47.9899 2.62558 48.0802 2.64151 48.1432 2.6555C48.2077 2.66984 48.2283 2.67882 48.2172 2.67444C48.2083 2.67097 48.1386 2.64332 48.041 2.57262C47.9408 2.50003 47.7917 2.36738 47.6636 2.15399L51.0936 0.0960116C50.6947 -0.568817 50.0832 -0.890368 49.6775 -1.04945C49.2451 -1.21904 48.7782 -1.30882 48.34 -1.36098L47.8672 2.61098ZM47.6038 2.04698L51.6038 9.74698L55.1534 7.90302L51.1534 0.20302L47.6038 2.04698ZM55.3786 8.825V0.974998H51.3786V8.825H55.3786ZM55.3786 0.974998C55.3786 1.37377 55.2479 1.73241 55.054 2.00977C54.8765 2.26356 54.6787 2.4052 54.569 2.47239C54.3726 2.59278 54.2516 2.60047 54.3602 2.57827C54.5439 2.54075 54.961 2.5 55.7036 2.5V-1.5C54.8962 -1.5 54.1509 -1.46159 53.5595 -1.34078C53.2807 -1.2838 52.869 -1.17716 52.4788 -0.938016C52.0713 -0.688264 51.3786 -0.0772014 51.3786 0.974998H55.3786ZM55.7036 2.5C56.4462 2.5 56.8634 2.54075 57.047 2.57827C57.1557 2.60047 57.0346 2.59278 56.8382 2.47239C56.7286 2.4052 56.5307 2.26356 56.3532 2.00977C56.1593 1.73241 56.0286 1.37377 56.0286 0.974998H60.0286C60.0286 -0.0772023 59.3359 -0.688265 58.9284 -0.938017C58.5382 -1.17716 58.1266 -1.2838 57.8477 -1.34078C57.2564 -1.46159 56.511 -1.5 55.7036 -1.5V2.5ZM56.0286 0.974998V17.45H60.0286V0.974998H56.0286ZM68.5396 12.75L66.5412 12.6689L66.5396 12.7094V12.75H68.5396ZM64.9646 12.775H66.9646V12.7344L66.9629 12.6939L64.9646 12.775ZM64.4646 0.449999H62.4646V0.490551L62.4662 0.531069L64.4646 0.449999ZM69.0396 0.425L71.0379 0.506069L71.0396 0.465551V0.425H69.0396ZM66.5396 12.75C66.5396 12.2159 66.7508 11.7938 66.9708 11.5188C67.172 11.2672 67.3873 11.1255 67.5037 11.0576C67.7282 10.9266 67.9152 10.882 67.942 10.8753C68.0285 10.8537 68.0465 10.8592 67.9235 10.8694C67.7093 10.8873 67.3271 10.9 66.7395 10.9V14.9C67.352 14.9 67.8698 14.8877 68.2556 14.8556C68.4326 14.8408 68.6756 14.815 68.9121 14.7559C69.0139 14.7305 69.2572 14.6656 69.5192 14.5127C69.6922 14.4118 70.5396 13.8808 70.5396 12.75H66.5396ZM66.7395 10.9C66.1584 10.9 65.7719 10.8894 65.5488 10.8737C65.4231 10.8648 65.4238 10.8591 65.4889 10.8729C65.5037 10.876 65.6696 10.9084 65.8766 11.0104C65.9788 11.0608 66.2027 11.1815 66.4239 11.4152C66.6649 11.6698 66.9646 12.1329 66.9646 12.775H62.9646C62.9646 13.4275 63.2688 13.9007 63.5191 14.1651C63.7495 14.4086 63.9873 14.5387 64.108 14.5982C64.3519 14.7184 64.5733 14.7677 64.6621 14.7865C64.8751 14.8315 65.0976 14.8518 65.2678 14.8638C65.6363 14.8898 66.1374 14.9 66.7395 14.9V10.9ZM66.9629 12.6939L66.4629 0.36893L62.4662 0.531069L62.9662 12.8561L66.9629 12.6939ZM66.4646 0.449999C66.4646 1.49892 65.7099 2.00696 65.5483 2.10644C65.3242 2.24435 65.1382 2.29072 65.1168 2.29637C65.0425 2.31597 65.0476 2.30646 65.2085 2.29232C65.4971 2.26694 65.9944 2.25 66.7395 2.25V-1.75C65.968 -1.75 65.3278 -1.73361 64.8582 -1.69232C64.6399 -1.67313 64.3606 -1.64097 64.0967 -1.57137C63.9805 -1.54073 63.7234 -1.46727 63.4519 -1.30019C63.2429 -1.17155 62.4646 -0.632257 62.4646 0.449999H66.4646ZM66.7395 2.25C67.4948 2.25 68.008 2.26479 68.3128 2.28798C68.4802 2.30072 68.504 2.31044 68.4507 2.29829C68.4414 2.29616 68.2737 2.2612 68.0634 2.14922C67.957 2.09253 67.738 1.96342 67.5263 1.72183C67.2944 1.45714 67.0396 1.01364 67.0396 0.425H71.0396C71.0396 -0.799198 70.0589 -1.31995 69.9438 -1.38125C69.6856 -1.51875 69.446 -1.57741 69.3409 -1.60141C69.096 -1.65732 68.8322 -1.68405 68.6163 -1.70049C68.1545 -1.73562 67.5176 -1.75 66.7395 -1.75V2.25ZM67.0412 0.343931L66.5412 12.6689L70.5379 12.8311L71.0379 0.506069L67.0412 0.343931ZM66.4146 14.25C66.4146 14.8386 66.1597 15.2821 65.9278 15.5468C65.7161 15.7884 65.4971 15.9175 65.3907 15.9742C65.1804 16.0862 65.0127 16.1212 65.0034 16.1233C64.9501 16.1354 64.9739 16.1257 65.1413 16.113C65.4461 16.0898 65.9593 16.075 66.7146 16.075V12.075C65.9365 12.075 65.2996 12.0894 64.8378 12.1245C64.6219 12.1409 64.3581 12.1677 64.1132 12.2236C64.0081 12.2476 63.7685 12.3063 63.5103 12.4437C63.3952 12.505 62.4146 13.0258 62.4146 14.25H66.4146ZM66.7146 16.075C67.4799 16.075 68.0087 16.0877 68.3295 16.1084C68.5031 16.1195 68.5457 16.129 68.5142 16.1229C68.5003 16.1202 68.4665 16.1133 68.4193 16.1002C68.377 16.0883 68.2894 16.062 68.18 16.0126C68.089 15.9715 67.8665 15.8636 67.6396 15.644C67.3965 15.4088 67.0396 14.9287 67.0396 14.225H71.0396C71.0396 13.5088 70.6765 13.0166 70.4213 12.7696C70.1824 12.5384 69.9417 12.4192 69.8264 12.3671C69.5875 12.2592 69.3691 12.2142 69.2743 12.1958C69.049 12.1522 68.801 12.1305 68.5871 12.1166C68.1329 12.0873 67.4992 12.075 66.7146 12.075V16.075ZM67.0396 14.225V17.825H71.0396V14.225H67.0396ZM67.0396 17.825C67.0396 16.9685 67.5622 16.465 67.8005 16.2857C68.0345 16.1095 68.2402 16.0439 68.2802 16.031C68.3829 15.9979 68.4017 16.0071 68.2445 16.024C67.9673 16.0538 67.4733 16.075 66.7146 16.075V20.075C67.5058 20.075 68.1743 20.0546 68.6721 20.001C68.9024 19.9763 69.2119 19.9334 69.5082 19.8378C69.6451 19.7936 69.9235 19.6941 70.206 19.4815C70.4927 19.2657 71.0396 18.7232 71.0396 17.825H67.0396ZM66.7146 16.075C65.9576 16.075 65.4357 16.0623 65.1197 16.0417C64.9485 16.0306 64.9085 16.0212 64.9423 16.0278C64.9569 16.0307 64.9914 16.0378 65.0393 16.0514C65.0825 16.0635 65.1709 16.0905 65.2811 16.1408C65.3733 16.1829 65.5959 16.2922 65.8221 16.5135C66.0652 16.7513 66.4146 17.2293 66.4146 17.925H62.4146C62.4146 18.6332 62.7699 19.1233 63.0249 19.3728C63.2631 19.6058 63.5037 19.7265 63.6199 19.7795C63.8599 19.8891 64.0793 19.9348 64.1743 19.9534C64.3998 19.9975 64.6473 20.0194 64.8594 20.0333C65.3101 20.0627 65.9381 20.075 66.7146 20.075V16.075ZM66.4146 17.925V14.25H62.4146V17.925H66.4146Z" fill="white" mask="url(#path-1-outside-1_560_77)"/>
</svg>
