<svg width="70" height="59" viewBox="0 0 70 59" fill="none" xmlns="http://www.w3.org/2000/svg">
<mask id="path-1-outside-1_4_25" maskUnits="userSpaceOnUse" x="-5" y="-5" width="80" height="69" fill="black">
<rect fill="white" x="-5" y="-5" width="80" height="69"/>
<path d="M29.3864 0.81818V59H13.5909V15.3636H13.25L0.522727 22.9773V9.56818L14.8409 0.81818H29.3864ZM69.8551 0.81818V59H54.0597V15.3636H53.7188L40.9915 22.9773V9.56818L55.3097 0.81818H69.8551Z"/>
</mask>
<path d="M29.3864 0.81818V59H13.5909V15.3636H13.25L0.522727 22.9773V9.56818L14.8409 0.81818H29.3864ZM69.8551 0.81818V59H54.0597V15.3636H53.7188L40.9915 22.9773V9.56818L55.3097 0.81818H69.8551Z" fill="#D570FF"/>
<path d="M29.3864 0.81818H34.3864V-4.18182H29.3864V0.81818ZM29.3864 59V64H34.3864V59H29.3864ZM13.5909 59H8.59091V64H13.5909V59ZM13.5909 15.3636H18.5909V10.3636H13.5909V15.3636ZM13.25 15.3636V10.3636H11.8686L10.6832 11.0728L13.25 15.3636ZM0.522727 22.9773H-4.47727V31.7947L3.08957 27.2681L0.522727 22.9773ZM0.522727 9.56818L-2.08452 5.30177L-4.47727 6.76401V9.56818H0.522727ZM14.8409 0.81818V-4.18182H13.4341L12.2337 -3.44823L14.8409 0.81818ZM24.3864 0.81818V59H34.3864V0.81818H24.3864ZM29.3864 54H13.5909V64H29.3864V54ZM18.5909 59V15.3636H8.59091V59H18.5909ZM13.5909 10.3636H13.25V20.3636H13.5909V10.3636ZM10.6832 11.0728L-2.04412 18.6864L3.08957 27.2681L15.8168 19.6545L10.6832 11.0728ZM5.52273 22.9773V9.56818H-4.47727V22.9773H5.52273ZM3.12998 13.8346L17.4482 5.08459L12.2337 -3.44823L-2.08452 5.30177L3.12998 13.8346ZM14.8409 5.81818H29.3864V-4.18182H14.8409V5.81818ZM69.8551 0.81818H74.8551V-4.18182H69.8551V0.81818ZM69.8551 59V64H74.8551V59H69.8551ZM54.0597 59H49.0597V64H54.0597V59ZM54.0597 15.3636H59.0597V10.3636H54.0597V15.3636ZM53.7188 15.3636V10.3636H52.3374L51.1519 11.0728L53.7188 15.3636ZM40.9915 22.9773H35.9915V31.7947L43.5583 27.2681L40.9915 22.9773ZM40.9915 9.56818L38.3842 5.30177L35.9915 6.76401V9.56818H40.9915ZM55.3097 0.81818V-4.18182H53.9028L52.7024 -3.44823L55.3097 0.81818ZM64.8551 0.81818V59H74.8551V0.81818H64.8551ZM69.8551 54H54.0597V64H69.8551V54ZM59.0597 59V15.3636H49.0597V59H59.0597ZM54.0597 10.3636H53.7188V20.3636H54.0597V10.3636ZM51.1519 11.0728L38.4246 18.6864L43.5583 27.2681L56.2856 19.6545L51.1519 11.0728ZM45.9915 22.9773V9.56818H35.9915V22.9773H45.9915ZM43.5987 13.8346L57.9169 5.08459L52.7024 -3.44823L38.3842 5.30177L43.5987 13.8346ZM55.3097 5.81818H69.8551V-4.18182H55.3097V5.81818Z" fill="white" mask="url(#path-1-outside-1_4_25)"/>
</svg>
